<?xml version="1.0" encoding="UTF-8" standalone="no"?>
<!-- Created with Inkscape (http://www.inkscape.org/) -->

<svg
   xmlns:dc="http://purl.org/dc/elements/1.1/"
   xmlns:cc="http://creativecommons.org/ns#"
   xmlns:rdf="http://www.w3.org/1999/02/22-rdf-syntax-ns#"
   xmlns:svg="http://www.w3.org/2000/svg"
   xmlns="http://www.w3.org/2000/svg"
   xmlns:sodipodi="http://sodipodi.sourceforge.net/DTD/sodipodi-0.dtd"
   xmlns:inkscape="http://www.inkscape.org/namespaces/inkscape"
   width="744.09448819"
   height="1052.3622047"
   id="svg4301"
   version="1.1"
   inkscape:version="0.48.1 r9760"
   sodipodi:docname="and.svg">
  <defs
     id="defs4303" />
  <sodipodi:namedview
     id="base"
     pagecolor="#ffffff"
     bordercolor="#666666"
     borderopacity="1.0"
     inkscape:pageopacity="0.0"
     inkscape:pageshadow="2"
     inkscape:zoom="0.70710678"
     inkscape:cx="340.84049"
     inkscape:cy="613.0342"
     inkscape:document-units="px"
     inkscape:current-layer="layer1"
     showgrid="false"
     inkscape:window-width="1364"
     inkscape:window-height="766"
     inkscape:window-x="0"
     inkscape:window-y="0"
     inkscape:window-maximized="0" />
  <metadata
     id="metadata4306">
    <rdf:RDF>
      <cc:Work
         rdf:about="">
        <dc:format>image/svg+xml</dc:format>
        <dc:type
           rdf:resource="http://purl.org/dc/dcmitype/StillImage" />
        <dc:title></dc:title>
      </cc:Work>
    </rdf:RDF>
  </metadata>
  <g
     inkscape:label="Layer 1"
     inkscape:groupmode="layer"
     id="layer1">
    <path
       style="fill:#2bf92b;fill-opacity:1;stroke:#000000;stroke-width:2;stroke-linecap:round;stroke-linejoin:round;stroke-miterlimit:4;stroke-opacity:1;stroke-dasharray:none"
       d="m 419.75172,440.87252 c 5.34674,-0.88343 6.16616,8.22267 4.96675,14.00967 -0.94976,2.16213 -2.8302,5.1032 -5.0148,3.03559 -3.56319,-0.41608 -7.69337,-4.72071 -7.27315,-9.01261 0.0943,-3.1507 1.43239,-6.81819 4.66024,-7.27521 0.86474,-0.34446 1.75107,-0.62992 2.66096,-0.75744 z m 4.00698,-21.60451 c 1.4893,26.45494 2.19518,14.56546 -4.86687,13.53751 -1.12307,-0.23506 -2.27962,-0.31499 -3.41751,-0.18337 -3.12361,0.24861 -5.12331,2.94113 -7.94909,3.89719 -4.89867,4.30223 -7.07833,12.19098 -4.06508,18.60456 2.83591,7.94279 11.72871,13.99687 19.11048,10.40965 0.46038,-0.5375 1.81701,-0.44656 2.21092,-0.92622 2.19625,-2.67425 0.16243,0.1698 1.61675,1.69006 0.15398,0.16097 -0.11616,0.83834 0.0378,0.99929 0.44113,0.46114 5.52564,-0.20914 6.20221,-0.23475 0.42076,-0.0159 1.62675,0.37121 1.78152,0.18275 0.0799,-0.0974 -0.77204,-8.67622 -0.85906,-10.97536 0.32012,-1.54783 -0.64393,-9.14663 -0.35931,-9.49321 0.66631,-0.81132 -0.14643,-8.65934 -0.45386,-11.99141 -0.21422,-2.32182 -0.29696,-7.84586 -0.39714,-10.49249 -0.59111,-2.72858 0.72641,-6.81369 -0.82123,-9.97607 -0.72218,-1.47566 -6.00751,-2.09301 -7.33812,-0.4728 -0.51549,0.62769 -0.23011,1.12409 -0.58888,2.02372 -0.39262,0.98452 -0.13136,2.33459 0.15644,3.40095 z"
       id="path4849"
       inkscape:connector-curvature="0"
       inkscape:export-filename="/home/substack/projects/heatwave/static/img/or.png"
       inkscape:export-xdpi="90"
       inkscape:export-ydpi="90"
       sodipodi:nodetypes="ccccccccccccsscsccsscssscc" />
    <path
       style="fill:#2bf92b;fill-opacity:1;stroke:#000000;stroke-width:2;stroke-linecap:round;stroke-linejoin:round;stroke-miterlimit:4;stroke-opacity:1;stroke-dasharray:none"
       d="m 63.766135,446.77354 c 0,-0.23571 -0.235703,-0.70711 0,-0.70711 0.235702,0 0,0.94281 0,0.70711 0,-1.54112 0.164303,-1.93207 0.883883,-2.65165 0.436454,-0.43646 2.70499,-0.12448 3.358757,-0.17678 1.47314,-0.11785 3.653386,-0.2357 4.772971,-0.17678 1.738252,0.0915 7.07216,-1.05956 8.662058,0.53033 0.327283,0.32729 1.401701,3.54805 0.707107,4.24264 -0.6427,0.6427 -1.23861,0.61931 -2.12132,1.06066 -0.631111,0.31556 -13.730125,0.2944 -14.318913,0 -0.335478,-0.16773 -1.336001,0.25499 -1.59099,0 -0.555068,-0.55506 -0.734408,-1.87629 -0.353553,-2.82842 z"
       id="path4951"
       inkscape:connector-curvature="0"
       sodipodi:nodetypes="csssssssscsc"
       inkscape:export-filename="/home/substack/projects/heatwave/static/img/or.png"
       inkscape:export-xdpi="90"
       inkscape:export-ydpi="90" />
    <path
       style="fill:#2bf92b;fill-opacity:1;stroke:#000000;stroke-width:2;stroke-linecap:round;stroke-linejoin:round;stroke-miterlimit:4;stroke-opacity:1;stroke-dasharray:none"
       d="m 95.58594,446.77354 c -0.675422,-2.09725 0.30837,-2.82843 3.71231,-2.82843 2.14094,0 3.75723,-0.17678 5.83363,-0.17678 1.62148,0 3.61011,-0.17677 5.48008,-0.17677 0.338,0 1.90622,-0.2151 2.12132,0 0.77343,0.77343 2.26817,2.68157 1.06066,3.88908 -0.14731,0.14732 0.14731,0.73657 0,0.88389 -0.38302,0.38301 -0.85442,0.67764 -1.23744,1.06066 -0.95978,0.95978 -15.30476,1.13547 -16.26345,0.17677 -0.67526,-0.67526 -0.70711,-1.41062 -0.70711,-2.82842 z"
       id="path4966"
       inkscape:connector-curvature="0"
       inkscape:export-filename="/home/substack/projects/heatwave/static/img/or.png"
       inkscape:export-xdpi="90"
       inkscape:export-ydpi="90" />
    <path
       style="fill:#2bf92b;fill-opacity:1;stroke:#000000;stroke-width:2;stroke-linecap:round;stroke-linejoin:round;stroke-miterlimit:4;stroke-opacity:1;stroke-dasharray:none"
       d="m 127.05219,446.59676 c 0.0634,-0.23491 0.0708,-1.13147 0.88389,-1.94454 1.10245,-1.10245 11.11448,-0.70711 13.6118,-0.70711 0.78037,0 3.71231,-0.26707 3.71231,0.53033 0,0.46294 1.66545,2.93074 0.88388,3.71231 -0.59917,0.59917 -0.85052,1.04398 -1.59099,1.41421 -1.52092,0.76047 -10.44096,2.02737 -12.37436,1.06066 -0.75867,-0.37933 -3.38624,0.1493 -3.88909,-0.35355 -0.82648,-0.82648 -0.96303,-2.34025 -1.23744,-3.71231 z"
       id="path5033"
       inkscape:connector-curvature="0"
       inkscape:export-filename="/home/substack/projects/heatwave/static/img/or.png"
       inkscape:export-xdpi="90"
       inkscape:export-ydpi="90" />
    <path
       style="fill:#2bf92b;fill-opacity:1;stroke:#000000;stroke-width:2;stroke-linecap:round;stroke-linejoin:round;stroke-miterlimit:4;stroke-opacity:1;stroke-dasharray:none"
       d="m 159.40233,446.59676 c -0.32359,-0.7524 0.58115,-1.28826 1.59099,-2.2981 0.39886,-0.39886 1.33851,0 1.94454,0 3.0241,0 12.32182,-1.28998 13.96536,0.35356 0.29843,0.29843 0.48667,0.84022 0.70711,1.06066 0.13256,0.13256 0.13256,3.04942 0,3.18198 -0.39004,0.39003 -1.20616,0.67582 -1.59099,1.06066 -0.75828,0.75828 -14.4097,0.96988 -15.37958,0 -0.74,-0.74 -0.98276,-2.08537 -1.23743,-3.35876 z"
       id="path5061"
       inkscape:connector-curvature="0"
       inkscape:export-filename="/home/substack/projects/heatwave/static/img/or.png"
       inkscape:export-xdpi="90"
       inkscape:export-ydpi="90" />
    <path
       style="fill:#2bf92b;fill-opacity:1;stroke:#000000;stroke-width:2;stroke-linecap:round;stroke-linejoin:round;stroke-miterlimit:4;stroke-opacity:1;stroke-dasharray:none"
       d="m 191.39891,446.77354 c 0.14532,-0.83137 0.0839,-3.18198 3.18198,-3.18198 2.02961,0 4.07893,-0.17678 6.01041,-0.17678 1.41938,0 2.90851,-0.17678 4.41941,-0.17678 1.05538,0 2.80832,-0.19689 3.35876,0.35356 1.19475,1.19474 1.92064,4.26654 0.35355,5.83363 -0.58517,0.58517 -2.34237,0.39783 -3.0052,1.06066 -0.19713,0.19713 -1.63478,0 -1.94454,0 -1.76493,0 -10.36475,0.0651 -10.96016,-0.53033 -0.68959,-0.68959 -1.41421,-1.70857 -1.41421,-3.18198 z"
       id="path5063"
       inkscape:connector-curvature="0"
       inkscape:export-filename="/home/substack/projects/heatwave/static/img/or.png"
       inkscape:export-xdpi="90"
       inkscape:export-ydpi="90" />
    <path
       style="fill:#2bf92b;fill-opacity:1;stroke:#000000;stroke-width:2;stroke-linecap:round;stroke-linejoin:round;stroke-miterlimit:4;stroke-opacity:1;stroke-dasharray:none"
       d="m 223.57227,446.77354 c 0.23861,0.34461 -0.16227,-1.78228 0.35355,-2.2981 0.39998,-0.39997 1.86003,-1.23743 2.65165,-1.23743 0.94561,0 5.09605,-0.19939 6.01041,-0.17678 2.35824,0.0583 7.36515,-0.41303 8.48528,0.7071 0.52348,0.52349 0.92978,4.19674 0.35355,4.77297 -0.64311,0.64312 -1.57341,0.7867 -2.47487,1.23744 -0.78634,0.39317 -5.71913,-0.0623 -7.24784,0.17678 -0.82334,0.12875 -6.30504,0.2357 -6.8943,-0.35355 -1.03576,-1.03577 -0.9519,-1.40078 -1.23743,-2.82843 z"
       id="path5065"
       inkscape:connector-curvature="0"
       sodipodi:nodetypes="cssssssssc"
       inkscape:export-filename="/home/substack/projects/heatwave/static/img/or.png"
       inkscape:export-xdpi="90"
       inkscape:export-ydpi="90" />
    <path
       style="fill:#2bf92b;fill-opacity:1;stroke:#000000;stroke-width:2;stroke-linecap:round;stroke-linejoin:round;stroke-miterlimit:4;stroke-opacity:1;stroke-dasharray:none"
       d="m 255.56885,446.95031 c -0.0589,-0.2357 -0.41248,-0.64818 -0.17678,-0.7071 0.2357,-0.0589 0.17678,0.95006 0.17678,0.7071 0,-3.35738 -0.42824,-2.26075 2.12132,-3.53553 0.41686,-0.20843 0.77443,0.10946 1.06066,-0.17678 0.44212,-0.44211 9.31008,-0.17677 10.78338,-0.17677 0.33428,0 1.89906,-0.22226 2.12132,0 1.04443,1.04443 1.16082,0.20032 2.12132,2.12132 0.32319,0.64638 1.26298,2.09577 0.53033,2.82842 -0.11785,0.11786 0.11785,0.58926 0,0.70711 -1.77116,1.77116 -6.51332,1.59099 -9.54594,1.59099 -0.43234,0 -1.10743,-0.41856 -1.59099,-0.17678 -0.83336,0.41668 -6.22035,0.67394 -6.89429,0 -0.49865,-0.49864 -0.512,-2.2064 -0.70711,-3.18198 z"
       id="path5133"
       inkscape:connector-curvature="0"
       inkscape:export-filename="/home/substack/projects/heatwave/static/img/or.png"
       inkscape:export-xdpi="90"
       inkscape:export-ydpi="90" />
    <path
       style="fill:#2bf92b;fill-opacity:1;stroke:#000000;stroke-width:2;stroke-linecap:round;stroke-linejoin:round;stroke-miterlimit:4;stroke-opacity:1;stroke-dasharray:none"
       d="m 288.62609,446.95031 c 0,-0.2357 -0.2357,-0.7071 0,-0.7071 0.2357,0 0,0.94281 0,0.7071 0,-3.49857 0.27898,-2.17242 2.65165,-3.35875 0.34453,-0.17227 0.47573,0.0546 0.70711,-0.17678 0.41361,-0.41361 3.92017,0.16123 4.59619,-0.17678 0.76725,-0.38362 1.89261,0.026 2.65165,-0.35355 0.70355,-0.35177 1.8177,-0.17678 2.65165,-0.17678 3.46737,0 5.48008,0.6348 5.48008,4.06587 0,0.75154 -0.0254,2.1467 -0.53033,2.65165 -0.54735,0.54735 -2.24437,0.65337 -2.65165,1.06066 -0.23306,0.23305 -1.93188,0 -2.2981,0 -1.95266,0 -12.01698,0.53416 -12.9047,-0.35356 -0.5611,-0.5611 -0.35355,-2.3954 -0.35355,-3.18198 z"
       id="path5135"
       inkscape:connector-curvature="0"
       inkscape:export-filename="/home/substack/projects/heatwave/static/img/or.png"
       inkscape:export-xdpi="90"
       inkscape:export-ydpi="90" />
    <path
       sodipodi:nodetypes="csssssssscsc"
       inkscape:connector-curvature="0"
       id="path5163"
       d="m 459.74593,446.77354 c 0,-0.23571 -0.2357,-0.70711 0,-0.70711 0.23571,0 0,0.94281 0,0.70711 0,-1.54112 0.16431,-1.93207 0.88389,-2.65165 0.43645,-0.43646 2.70499,-0.12448 3.35875,-0.17678 1.47314,-0.11785 3.65339,-0.2357 4.77298,-0.17678 1.73825,0.0915 7.07216,-1.05956 8.66205,0.53033 0.32729,0.32729 1.4017,3.54805 0.70711,4.24264 -0.6427,0.6427 -1.23861,0.61931 -2.12132,1.06066 -0.63111,0.31556 -13.73012,0.2944 -14.31891,0 -0.33548,-0.16773 -1.336,0.25499 -1.59099,0 -0.55507,-0.55506 -0.73441,-1.87629 -0.35356,-2.82842 z"
       style="fill:#2bf92b;fill-opacity:1;stroke:#000000;stroke-width:2;stroke-linecap:round;stroke-linejoin:round;stroke-miterlimit:4;stroke-opacity:1;stroke-dasharray:none"
       inkscape:export-filename="/home/substack/projects/heatwave/static/img/or.png"
       inkscape:export-xdpi="90"
       inkscape:export-ydpi="90" />
    <path
       inkscape:connector-curvature="0"
       id="path5165"
       d="m 491.56574,446.77354 c -0.67542,-2.09725 0.30837,-2.82843 3.71231,-2.82843 2.14094,0 3.75723,-0.17678 5.83363,-0.17678 1.62148,0 3.61011,-0.17677 5.48008,-0.17677 0.338,0 1.90622,-0.2151 2.12132,0 0.77343,0.77343 2.26817,2.68157 1.06066,3.88908 -0.14731,0.14732 0.14731,0.73657 0,0.88389 -0.38302,0.38301 -0.85442,0.67764 -1.23744,1.06066 -0.95978,0.95978 -15.30476,1.13547 -16.26345,0.17677 -0.67526,-0.67526 -0.70711,-1.41062 -0.70711,-2.82842 z"
       style="fill:#2bf92b;fill-opacity:1;stroke:#000000;stroke-width:2;stroke-linecap:round;stroke-linejoin:round;stroke-miterlimit:4;stroke-opacity:1;stroke-dasharray:none"
       inkscape:export-filename="/home/substack/projects/heatwave/static/img/or.png"
       inkscape:export-xdpi="90"
       inkscape:export-ydpi="90" />
    <path
       inkscape:connector-curvature="0"
       id="path5167"
       d="m 523.03199,446.59676 c 0.0634,-0.23491 0.0708,-1.13147 0.88389,-1.94454 1.10245,-1.10245 11.11448,-0.70711 13.6118,-0.70711 0.78037,0 3.71231,-0.26707 3.71231,0.53033 0,0.46294 1.66545,2.93074 0.88388,3.71231 -0.59917,0.59917 -0.85052,1.04398 -1.59099,1.41421 -1.52092,0.76047 -10.44096,2.02737 -12.37436,1.06066 -0.75867,-0.37933 -3.38624,0.1493 -3.88909,-0.35355 -0.82648,-0.82648 -0.96303,-2.34025 -1.23744,-3.71231 z"
       style="fill:#2bf92b;fill-opacity:1;stroke:#000000;stroke-width:2;stroke-linecap:round;stroke-linejoin:round;stroke-miterlimit:4;stroke-opacity:1;stroke-dasharray:none"
       inkscape:export-filename="/home/substack/projects/heatwave/static/img/or.png"
       inkscape:export-xdpi="90"
       inkscape:export-ydpi="90" />
    <path
       inkscape:connector-curvature="0"
       id="path5169"
       d="m 555.38213,446.59676 c -0.32359,-0.7524 0.58115,-1.28826 1.59099,-2.2981 0.39886,-0.39886 1.33851,0 1.94454,0 3.0241,0 12.32182,-1.28998 13.96536,0.35356 0.29843,0.29843 0.48667,0.84022 0.70711,1.06066 0.13256,0.13256 0.13256,3.04942 0,3.18198 -0.39004,0.39003 -1.20616,0.67582 -1.59099,1.06066 -0.75828,0.75828 -14.4097,0.96988 -15.37958,0 -0.74,-0.74 -0.98276,-2.08537 -1.23743,-3.35876 z"
       style="fill:#2bf92b;fill-opacity:1;stroke:#000000;stroke-width:2;stroke-linecap:round;stroke-linejoin:round;stroke-miterlimit:4;stroke-opacity:1;stroke-dasharray:none"
       inkscape:export-filename="/home/substack/projects/heatwave/static/img/or.png"
       inkscape:export-xdpi="90"
       inkscape:export-ydpi="90" />
    <path
       inkscape:connector-curvature="0"
       id="path5171"
       d="m 587.37871,446.77354 c 0.14532,-0.83137 0.0839,-3.18198 3.18198,-3.18198 2.02961,0 4.07893,-0.17678 6.01041,-0.17678 1.41938,0 2.90851,-0.17678 4.41941,-0.17678 1.05538,0 2.80832,-0.19689 3.35876,0.35356 1.19475,1.19474 1.92064,4.26654 0.35355,5.83363 -0.58517,0.58517 -2.34237,0.39783 -3.0052,1.06066 -0.19713,0.19713 -1.63478,0 -1.94454,0 -1.76493,0 -10.36475,0.0651 -10.96016,-0.53033 -0.68959,-0.68959 -1.41421,-1.70857 -1.41421,-3.18198 z"
       style="fill:#2bf92b;fill-opacity:1;stroke:#000000;stroke-width:2;stroke-linecap:round;stroke-linejoin:round;stroke-miterlimit:4;stroke-opacity:1;stroke-dasharray:none"
       inkscape:export-filename="/home/substack/projects/heatwave/static/img/or.png"
       inkscape:export-xdpi="90"
       inkscape:export-ydpi="90" />
    <path
       sodipodi:nodetypes="cssssssssc"
       inkscape:connector-curvature="0"
       id="path5173"
       d="m 619.55207,446.77354 c 0.23861,0.34461 -0.16227,-1.78228 0.35355,-2.2981 0.39998,-0.39997 1.86003,-1.23743 2.65165,-1.23743 0.94561,0 5.09605,-0.19939 6.01041,-0.17678 2.35824,0.0583 7.36515,-0.41303 8.48528,0.7071 0.52348,0.52349 0.92978,4.19674 0.35355,4.77297 -0.64311,0.64312 -1.57341,0.7867 -2.47487,1.23744 -0.78634,0.39317 -5.71913,-0.0623 -7.24784,0.17678 -0.82334,0.12875 -6.30504,0.2357 -6.8943,-0.35355 -1.03576,-1.03577 -0.9519,-1.40078 -1.23743,-2.82843 z"
       style="fill:#2bf92b;fill-opacity:1;stroke:#000000;stroke-width:2;stroke-linecap:round;stroke-linejoin:round;stroke-miterlimit:4;stroke-opacity:1;stroke-dasharray:none"
       inkscape:export-filename="/home/substack/projects/heatwave/static/img/or.png"
       inkscape:export-xdpi="90"
       inkscape:export-ydpi="90" />
    <path
       inkscape:connector-curvature="0"
       id="path5175"
       d="m 651.54865,446.95031 c -0.0589,-0.2357 -0.41248,-0.64818 -0.17678,-0.7071 0.2357,-0.0589 0.17678,0.95006 0.17678,0.7071 0,-3.35738 -0.42824,-2.26075 2.12132,-3.53553 0.41686,-0.20843 0.77443,0.10946 1.06066,-0.17678 0.44212,-0.44211 9.31008,-0.17677 10.78338,-0.17677 0.33428,0 1.89906,-0.22226 2.12132,0 1.04443,1.04443 1.16082,0.20032 2.12132,2.12132 0.32319,0.64638 1.26298,2.09577 0.53033,2.82842 -0.11785,0.11786 0.11785,0.58926 0,0.70711 -1.77116,1.77116 -6.51332,1.59099 -9.54594,1.59099 -0.43234,0 -1.10743,-0.41856 -1.59099,-0.17678 -0.83336,0.41668 -6.22035,0.67394 -6.89429,0 -0.49865,-0.49864 -0.512,-2.2064 -0.70711,-3.18198 z"
       style="fill:#2bf92b;fill-opacity:1;stroke:#000000;stroke-width:2;stroke-linecap:round;stroke-linejoin:round;stroke-miterlimit:4;stroke-opacity:1;stroke-dasharray:none"
       inkscape:export-filename="/home/substack/projects/heatwave/static/img/or.png"
       inkscape:export-xdpi="90"
       inkscape:export-ydpi="90" />
    <path
       inkscape:connector-curvature="0"
       id="path5177"
       d="m 684.60589,446.95031 c 0,-0.2357 -0.2357,-0.7071 0,-0.7071 0.2357,0 0,0.94281 0,0.7071 0,-3.49857 0.27898,-2.17242 2.65165,-3.35875 0.34453,-0.17227 0.47573,0.0546 0.70711,-0.17678 0.41361,-0.41361 3.92017,0.16123 4.59619,-0.17678 0.76725,-0.38362 1.89261,0.026 2.65165,-0.35355 0.70355,-0.35177 1.8177,-0.17678 2.65165,-0.17678 3.46737,0 5.48008,0.6348 5.48008,4.06587 0,0.75154 -0.0254,2.1467 -0.53033,2.65165 -0.54735,0.54735 -2.24437,0.65337 -2.65165,1.06066 -0.23306,0.23305 -1.93188,0 -2.2981,0 -1.95266,0 -12.01698,0.53416 -12.9047,-0.35356 -0.5611,-0.5611 -0.35355,-2.3954 -0.35355,-3.18198 z"
       style="fill:#2bf92b;fill-opacity:1;stroke:#000000;stroke-width:2;stroke-linecap:round;stroke-linejoin:round;stroke-miterlimit:4;stroke-opacity:1;stroke-dasharray:none"
       inkscape:export-filename="/home/substack/projects/heatwave/static/img/or.png"
       inkscape:export-xdpi="90"
       inkscape:export-ydpi="90" />
    <path
       style="fill:#8dfa4e;fill-opacity:1;stroke:none;stroke-width:2;stroke-miterlimit:4;stroke-dasharray:none"
       d="m 414.77846,440.61011 c -1.3245,1.8642 -2.3164,2.79969 -3.14297,4.87236 -0.10627,0.2665 0.21654,1.04302 0.0473,1.24911 -0.3357,0.40877 -0.27108,2.11598 0.0946,2.49821 0.42384,0.44306 -0.1798,2.21142 0.32552,2.73965 0.70817,0.74028 1.05609,2.78354 1.68293,3.43881 0.78856,0.82432 1.60887,1.68183 2.30963,2.41437 0.51747,0.54093 2.9285,0.422 3.12947,0.63209 0.50381,0.52665 1.55789,0.80241 2.26235,1.16526 0.21167,0.10903 3.42995,-1.82445 3.68999,-2.14109 0.0353,-0.043 0.71399,-1.17313 0.84822,-1.03282 1.26874,1.32628 -2.37039,3.93162 -2.50681,4.09774 -0.63349,0.77137 -3.66317,0.93016 -4.64221,0.42589 -0.63642,-0.32781 -1.79534,0.0427 -2.23398,-0.41581 -1.14947,-1.20159 -3.04651,-1.98497 -4.11007,-3.09676 -0.44869,-0.46905 -2.20928,-7.24058 -2.46363,-9.41356 -0.32663,-2.79057 1.71737,-7.9904 4.70972,-7.43345 z"
       id="path5248"
       inkscape:connector-curvature="0"
       sodipodi:nodetypes="ccsssssscsssssssc"
       inkscape:export-filename="/home/substack/projects/heatwave/static/img/or.png"
       inkscape:export-xdpi="90"
       inkscape:export-ydpi="90" />
    <path
       style="fill:#18c018;fill-opacity:1;stroke:none;stroke-width:2;stroke-miterlimit:4;stroke-dasharray:none"
       d="m 404.82479,441.36212 c -0.54206,0.7056 -1.04779,1.79851 -1.33106,2.92744 -0.38424,1.53134 -0.44551,3.47283 -0.24917,5.1381 0.49005,4.15647 1.62432,8.29626 5.79368,12.41475 0.82385,0.8138 2.75538,1.81163 3.97094,2.35149 1.59632,0.70897 3.72767,1.10981 5.0312,1.06047 1.25462,-0.0475 2.65568,-0.52023 3.52521,-0.63378 2.04344,-0.26684 2.48787,-1.4872 1.83554,-1.32037 -2.44517,0.62536 -5.76491,0.93182 -5.96179,0.72601 -0.6785,-0.70927 -3.03407,-0.33799 -4.02497,-0.84838 -0.97321,-0.50127 -3.49236,-2.81096 -4.3552,-3.71293 -0.71537,-0.74781 -3.38575,-5.87761 -4.08712,-8.35139 -0.43709,-1.54163 0.062,-6.21691 0.60709,-7.40326 0.46828,-1.01924 0.80166,-2.02971 1.22977,-2.67343 0.68114,-1.02417 2.54925,-6.33296 -0.60578,-1.35305 -0.39555,0.62434 -1.03279,1.0398 -1.37834,1.67833 z"
       id="path5256"
       inkscape:connector-curvature="0"
       sodipodi:nodetypes="cssssssssssssssc"
       inkscape:export-filename="/home/substack/projects/heatwave/static/img/or.png"
       inkscape:export-xdpi="90"
       inkscape:export-ydpi="90" />
    <path
       style="fill:#8dfa4e;fill-opacity:1;stroke:none"
       d="m 293.65534,444.77304 c 0.25656,0.88902 10.11927,-1.70825 11.49161,-0.50531 0.39501,0.34626 0.94567,1.04576 0.99617,1.81353 0.0246,0.3742 0.0492,0.74839 0.0738,1.12258 0.005,0.0831 0.0995,0.24399 0.0164,0.24946 -0.0147,9.6e-4 -0.005,-0.35706 -0.0246,-0.37419 -0.24042,-0.21075 -0.43147,-0.73083 -0.68929,-0.95683 -0.42335,-0.37109 -1.40001,-0.63951 -1.68713,-0.89119 -0.1111,-0.0974 -2.61862,0.047 -3.00173,0.0722 -1.78104,0.11714 -5.73594,0.20952 -7.17527,-0.53022 z"
       id="path5262"
       inkscape:connector-curvature="0"
       inkscape:export-filename="/home/substack/projects/heatwave/static/img/or.png"
       inkscape:export-xdpi="90"
       inkscape:export-ydpi="90" />
    <path
       style="fill:#18c018;fill-opacity:1;stroke:none"
       d="m 289.875,445.48718 c -0.11654,0.96821 -0.43213,3.06787 0.125,3.625 0.23101,0.23101 1.06452,0.125 1.5,0.125 1.79727,0 2.98238,0 4.75,0 0.875,0 1.75,0 2.625,0 1.25067,0 2.21231,-0.25 3.375,-0.25 0.24105,0 1.38359,-0.24141 1.375,-0.25 -1.4047,-1.4047 -8.57228,0.30272 -9.5,-0.625 -0.20833,-0.20833 -0.91667,0.0833 -1.125,-0.125 -0.32958,-0.32958 -1.36483,0.38517 -1.75,0 -0.66287,-0.66287 -1.375,-1.49551 -1.375,-2.5 z"
       id="path5264"
       inkscape:connector-curvature="0"
       inkscape:export-filename="/home/substack/projects/heatwave/static/img/or.png"
       inkscape:export-xdpi="90"
       inkscape:export-ydpi="90" />
    <path
       style="fill:#18c018;fill-opacity:1;stroke:none"
       d="m 256.75,445.98718 c 0.31447,-0.0362 -0.10858,2.39142 0.625,3.125 0.1648,0.1648 1.36604,0 1.625,0 0.78529,0 3.51787,0.10713 3.875,-0.25 0.0755,-0.0755 0.63146,0 0.75,0 0.34681,0 1.17725,0.0523 1.375,0.25 0.0604,0.0604 2.72435,-0.125 3.125,-0.125 0.79298,0 1.39407,-0.25 2.125,-0.25 0.57248,0 1.25,-0.4169 1.25,-0.25 0,0.0479 -1.02778,-0.125 -1.125,-0.125 -0.79316,0 -1.77247,-0.125 -2.375,-0.125 -1.0023,0 -8.89911,-0.39911 -9.125,-0.625 -0.24855,-0.24854 -1.64201,-1.3352 -2.125,-1.625 z"
       id="path5266"
       inkscape:connector-curvature="0"
       inkscape:export-filename="/home/substack/projects/heatwave/static/img/or.png"
       inkscape:export-xdpi="90"
       inkscape:export-ydpi="90" />
    <path
       style="fill:#8dfa4e;fill-opacity:1;stroke:none"
       d="m 260.375,444.23718 c 1.11834,-0.26749 3.66608,-0.41696 4.75,0.125 0.0234,0.0117 3.54445,-0.125 4.125,-0.125 0.37588,0 1.64021,-0.35979 1.75,-0.25 0.20705,0.20705 0.31532,0.13064 0.5,0.5 0.18296,0.36593 0.5159,0.3909 0.75,0.625 0.29296,0.29296 0.082,0.83204 0.375,1.125 0.0572,0.0572 0.67444,0.70056 0.625,0.75 -0.1039,0.1039 -0.23052,-0.23052 -0.25,-0.25 -0.10417,-0.10417 -0.39583,-0.0208 -0.5,-0.125 -0.31744,-0.31744 -1.31767,-0.0677 -1.625,-0.375 -0.46717,-0.46717 -3.02551,-0.1505 -3.375,-0.5 -0.56064,-0.56064 -5.64519,-0.90807 -7.125,-1.5 z"
       id="path5268"
       inkscape:connector-curvature="0"
       inkscape:export-filename="/home/substack/projects/heatwave/static/img/or.png"
       inkscape:export-xdpi="90"
       inkscape:export-ydpi="90" />
    <path
       style="fill:#18c018;fill-opacity:1;stroke:none"
       d="m 224.75,445.73718 c -0.0417,0.16667 0.0417,0.54167 -0.125,0.5 -0.16667,-0.0417 0.125,-0.67179 0.125,-0.5 0,0.37747 -0.38023,1.74477 0,2.125 1.56812,1.56812 8.28199,0.625 10.75,0.625 0.33278,0 2.75,-0.33242 2.75,-0.25 0,0.24323 -1.44764,-0.625 -2.5,-0.625 -1.43137,0 -8.94673,-0.0717 -9.375,-0.5 -0.5474,-0.5474 -0.77516,-0.86509 -1.625,-1.375 z"
       id="path5270"
       inkscape:connector-curvature="0"
       inkscape:export-filename="/home/substack/projects/heatwave/static/img/or.png"
       inkscape:export-xdpi="90"
       inkscape:export-ydpi="90" />
    <path
       style="fill:#8dfa4e;fill-opacity:1;stroke:none"
       d="m 227.875,444.48718 c 0.16667,-0.0833 0.41667,-0.41667 0.5,-0.25 0.0833,0.16667 -0.68634,0.25 -0.5,0.25 0.2511,0 0.56822,-0.25 0.875,-0.25 1.46944,0 11.07157,-0.17842 11.375,0.125 0.16248,0.16248 0.96273,2.41227 0.5,2.875 -0.20015,0.20015 -1.09601,-0.34601 -1.125,-0.375 -0.20765,-0.20765 -5.24963,-1.875 -5.625,-1.875 -0.43595,0 -4.44729,-0.84864 -3.25,-0.25 -0.20833,0.0833 -0.40498,0.206 -0.625,0.25 -0.14731,0.0295 -0.14377,-0.26877 -0.25,-0.375 -0.30396,-0.30396 -1.38904,-0.0257 -1.875,-0.125 z"
       id="path5272"
       inkscape:connector-curvature="0"
       inkscape:export-filename="/home/substack/projects/heatwave/static/img/or.png"
       inkscape:export-xdpi="90"
       inkscape:export-ydpi="90" />
    <path
       style="fill:#18c018;fill-opacity:1;stroke:none"
       d="m 193,445.86218 c -0.63573,0.7291 -0.39108,1.48392 0,1.875 0.39991,0.39992 0.91102,0.66102 1.25,1 0.4498,0.4498 4.23958,0.56771 4.875,0.25 0.83007,-0.41503 2.39104,0.125 3.25,0.125 1.2347,0 2.21124,-0.25 3.375,-0.25 0.59482,0 0.86166,-0.5 1.375,-0.5 0.0833,0 0.35417,-0.125 0.25,-0.125 -2.31744,0 -7.98778,0.25611 -10,-0.75 -0.49783,-0.24891 -2.03173,-0.0317 -2.375,-0.375 -0.20496,-0.20496 -1.54755,-1.06902 -2,-1.25 z"
       id="path5274"
       inkscape:connector-curvature="0"
       inkscape:export-filename="/home/substack/projects/heatwave/static/img/or.png"
       inkscape:export-xdpi="90"
       inkscape:export-ydpi="90" />
    <path
       style="fill:#8dfa4e;fill-opacity:1;stroke:none"
       d="m 196.375,444.86218 c 1.11138,-0.62701 7.87978,-0.005 8.25,-0.375 0.11458,-0.11457 2.19387,-0.55613 2.5,-0.25 0.0833,0.0833 0.16667,0.16667 0.25,0.25 0.25895,0.25895 0.93803,1.81198 0.5,2.25 -0.22639,0.22639 -1.81583,-0.44083 -1.875,-0.5 -0.11974,-0.11974 -8.81133,-1.375 -9.625,-1.375 z"
       id="path5276"
       inkscape:connector-curvature="0"
       inkscape:export-filename="/home/substack/projects/heatwave/static/img/or.png"
       inkscape:export-xdpi="90"
       inkscape:export-ydpi="90" />
    <path
       style="fill:#18c018;fill-opacity:1;stroke:none"
       d="m 161,445.98718 c -1.05347,1.80761 0.68012,-1.48523 -0.375,0.625 -0.23457,0.46915 -0.12226,1.25275 0.25,1.625 0.43518,0.43518 0.65222,0.77722 1,1.125 0.63634,0.63634 5.1018,-0.4491 6,0 0.78139,0.3907 3.84361,0.3907 4.625,0 0.43266,-0.21633 2.33015,0.0448 2.625,-0.25 0.33728,-0.33728 -4.06764,-0.34632 -4.125,-0.375 -1.122,-0.561 -2.61177,0.0691 -3.75,-0.5 -0.6651,-0.33255 -3.9325,-1.1825 -4.125,-1.375 -0.359,-0.359 -1.08025,-0.45525 -1.375,-0.75 -0.0659,-0.0659 -0.0318,-0.25 -0.125,-0.25 -0.21246,0 -0.625,0.33746 -0.625,0.125 0,-0.22438 0.41667,-0.16667 0.625,-0.25"
       id="path5278"
       inkscape:connector-curvature="0"
       inkscape:export-filename="/home/substack/projects/heatwave/static/img/or.png"
       inkscape:export-xdpi="90"
       inkscape:export-ydpi="90" />
    <path
       style="fill:#8dfa4e;fill-opacity:1;stroke:none"
       d="m 164.625,445.36218 c 0.18922,-0.24182 0.96868,0.125 1,0.125 0.73632,0 2.2186,-0.1718 2.875,-0.5 0.44385,-0.22192 3.67961,0.375 4.625,0.375 0.86586,0 1.82665,-0.54835 2.375,0 0.63097,0.63097 1.125,1.27602 1.125,2.5 0,0.12868 0.21814,0.15686 0.125,0.25 -0.12867,0.12867 -1.76661,-0.5708 -2.125,-0.75 -0.36516,-0.18258 -3.22578,-0.60078 -3.25,-0.625 -0.24631,-0.24631 -2.83495,-0.75 -3.375,-0.75 -0.3264,0 -1.17662,-0.17662 -1.375,-0.375 -0.32628,-0.32628 -0.98366,0.32067 -1.375,0.125 -0.21731,-0.10865 -0.3893,-0.43392 -0.625,-0.375 -0.51523,0.12881 0.34638,0.59638 0.375,0.625"
       id="path5280"
       inkscape:connector-curvature="0"
       inkscape:export-filename="/home/substack/projects/heatwave/static/img/or.png"
       inkscape:export-xdpi="90"
       inkscape:export-ydpi="90" />
    <path
       style="fill:#18c018;fill-opacity:1;stroke:none"
       d="m 128.75,445.86218 c -1.13023,1.99227 0.001,2.62639 0.875,3.5 0.42067,0.42067 1.65268,-0.59732 2.125,-0.125 0.37927,0.37927 1.42704,0.30204 1.875,0.75 0.0755,0.0755 0.63146,0 0.75,0 0.34812,0 4.91828,-0.20914 5,-0.25 0.35002,-0.17501 0.6992,-0.25 1.125,-0.25 0.49361,0 1.21488,-0.29494 1.625,-0.5 0.21645,-0.10822 1.375,0.18346 1.375,-0.25 0,-0.53595 -4.3361,-0.25 -4.75,-0.25 -2.81347,0 -7.6437,0.1063 -9.125,-1.375 -0.28538,-0.28537 -0.51946,-0.77595 -0.875,-1.25 z"
       id="path5282"
       inkscape:connector-curvature="0"
       inkscape:export-filename="/home/substack/projects/heatwave/static/img/or.png"
       inkscape:export-xdpi="90"
       inkscape:export-ydpi="90" />
    <path
       style="fill:#8dfa4e;fill-opacity:1;stroke:none"
       d="m 131.875,445.36218 c 2.13616,0.31641 7.71764,-0.5 11,-0.5 1.00997,0 2.00566,2.11935 1.875,2.25 -0.10803,0.10804 -1.90416,-0.5 -2.625,-0.5 -0.52997,0 -4.15452,-0.52952 -4.375,-0.75 -0.16598,-0.16598 -4.98765,-0.14506 -5.875,-0.5 z"
       id="path5284"
       inkscape:connector-curvature="0"
       inkscape:export-filename="/home/substack/projects/heatwave/static/img/or.png"
       inkscape:export-xdpi="90"
       inkscape:export-ydpi="90" />
    <path
       style="fill:#18c018;fill-opacity:1;stroke:none"
       d="m 96.75,445.86218 c -1.64317,3.81814 7.71532,3.25 10.625,3.25 0.98869,0 2.08924,-0.5 3,-0.5 0.0906,0 1.125,-0.31826 1.125,-0.25 0,0.0963 -2.7696,-0.125 -3,-0.125 -2.69401,0 -10.0444,-0.6694 -11.75,-2.375 z"
       id="path5286"
       inkscape:connector-curvature="0"
       inkscape:export-filename="/home/substack/projects/heatwave/static/img/or.png"
       inkscape:export-xdpi="90"
       inkscape:export-ydpi="90" />
    <path
       style="fill:#8dfa4e;fill-opacity:1;stroke:none"
       d="m 99.5,445.36218 c 0.29547,0.32051 11.43248,-1.44252 12.375,-0.5 1.21478,1.21478 0.40132,1.80265 0.625,2.25 0.0306,0.0611 0.24233,0.25767 0.125,0.375 -0.57146,0.57146 -1.34139,-0.96639 -1.5,-1.125 -0.0292,-0.0292 -1.08548,-0.125 -1.375,-0.125 -1.77487,0 -6.62537,-0.25018 -7.875,-0.875 -0.4215,-0.21075 -1.72097,0.13081 -2.375,0 z"
       id="path5288"
       inkscape:connector-curvature="0"
       inkscape:export-filename="/home/substack/projects/heatwave/static/img/or.png"
       inkscape:export-xdpi="90"
       inkscape:export-ydpi="90" />
    <path
       style="fill:#18c018;fill-opacity:1;stroke:none"
       d="m 65.125,445.48718 c 0.536027,0.85876 -0.960158,2.16484 -0.375,2.75 0.549633,0.54963 9.314358,0.25 10.375,0.25 0.563371,0 1.338195,0.28681 1.625,0 0.430546,-0.43054 2.028774,0.22123 2.5,-0.25 0.12814,-0.12814 -1.497912,-0.25 -1.75,-0.25 -0.971259,0 -1.58759,-0.125 -2.5,-0.125 -1.149981,0 -6.746719,0.003 -7.25,-0.5 -0.170758,-0.17076 -2.816375,-1.49225 -2.625,-1.875 0.100347,-0.20069 0.416667,0.16667 0.625,0.25"
       id="path5290"
       inkscape:connector-curvature="0"
       inkscape:export-filename="/home/substack/projects/heatwave/static/img/or.png"
       inkscape:export-xdpi="90"
       inkscape:export-ydpi="90" />
    <path
       style="fill:#8dfa4e;fill-opacity:1;stroke:none"
       d="m 68.625,445.48718 c 2.565998,0.19002 9.534168,-1.59083 10.875,-0.25 0.107795,0.1078 1.914252,1.58575 1.25,2.25 -0.01672,0.0167 -1.87633,-0.43816 -2,-0.5 -0.908616,-0.45431 -4.39936,-0.64936 -4.875,-1.125 -0.164309,-0.16431 -1.118331,0.003 -1.375,-0.125 -0.448294,-0.22415 -1.784294,0.34071 -2.125,0 -0.111947,-0.11195 -1.583739,-0.37469 -1.75,-0.25 -0.211553,0.15867 0.21603,0.54008 0.25,0.625"
       id="path5292"
       inkscape:connector-curvature="0"
       inkscape:export-filename="/home/substack/projects/heatwave/static/img/or.png"
       inkscape:export-xdpi="90"
       inkscape:export-ydpi="90" />
    <path
       style="fill:#8dfa4e;fill-opacity:1;stroke:none"
       d="m 463.75,445.11218 c 1.04239,-0.23146 5.10876,-0.375 7.75,-0.375 0.33872,0 1.90945,0.21555 2.125,0 0.32793,-0.32793 1.83646,-0.41353 2.25,0 0.15928,0.15928 1.41261,2.4624 0.875,3 -0.0331,0.0331 -0.61803,-0.5 -1,-0.5 -0.59988,0 -3.2107,-0.7107 -3.375,-0.875 -0.10417,-0.10417 -0.52083,0.10417 -0.625,0 -0.96014,-0.96014 -6.22974,-0.18784 -8,-1.25 z"
       id="path5294"
       inkscape:connector-curvature="0"
       inkscape:export-filename="/home/substack/projects/heatwave/static/img/or.png"
       inkscape:export-xdpi="90"
       inkscape:export-ydpi="90" />
    <path
       style="fill:#18c018;fill-opacity:1;stroke:none"
       d="m 461.125,445.36218 c -0.0417,0.16667 0.0417,0.54167 -0.125,0.5 -0.16667,-0.0417 0.125,-0.67179 0.125,-0.5 0,0.47375 -0.30647,1.19353 0,1.5 0.19243,0.19243 -0.46502,1.28498 -0.25,1.5 0.18522,0.18522 0.90752,-0.125 1.125,-0.125 2.26698,0 4.35617,0.5 6.625,0.5 0.94426,0 1.66912,-0.125 2.5,-0.125 0.87227,0 1.66142,-0.125 1.625,-0.125 -0.61174,0 -6.81933,-1.06933 -7.125,-1.375 -0.71669,-0.71669 -2.31404,-0.81404 -3.125,-1.625 -0.16789,-0.16789 -1.20839,-0.125 -1.375,-0.125 z"
       id="path5296"
       inkscape:connector-curvature="0"
       inkscape:export-filename="/home/substack/projects/heatwave/static/img/or.png"
       inkscape:export-xdpi="90"
       inkscape:export-ydpi="90" />
    <path
       style="fill:#18c018;fill-opacity:1;stroke:none"
       d="m 492.5,445.61218 c -0.1257,1.51833 0.125,-1.22347 0.125,0.875 0,0.33447 -7.7e-4,1.62423 0.25,1.875 0.14583,0.14583 0.60417,-0.0208 0.75,0.125 1.01352,1.01352 6.49978,-0.0626 7.625,0.5 0.82845,0.41423 3.14439,0 4.25,0 0.47213,0 0.73902,0.13598 1.125,-0.25 0.0589,-0.0589 0.33333,0 0.25,0 -1.08136,0 -5.15948,-0.15948 -5.625,-0.625 -0.24047,-0.24047 -1.1836,0.1582 -1.5,0 -0.86356,-0.43178 -1.78911,-0.33206 -2.625,-0.75 -0.10407,-0.052 -0.42071,0.0793 -0.5,0 -0.37904,-0.37903 -1.52047,-0.27047 -2,-0.75 -0.33718,-0.33718 -0.83471,-0.85485 -1.375,-1.125 -0.22669,-0.11334 -0.50147,0.0753 -0.75,0.125 z"
       id="path5298"
       inkscape:connector-curvature="0"
       inkscape:export-filename="/home/substack/projects/heatwave/static/img/or.png"
       inkscape:export-xdpi="90"
       inkscape:export-ydpi="90" />
    <path
       style="fill:#8dfa4e;fill-opacity:1;stroke:none"
       d="m 495.875,444.98718 c 1.54455,-0.12916 6.254,-0.125 9.375,-0.125 0.63635,0 2.0682,-0.2784 2.625,0 0.26186,0.13093 1.35051,1.77449 1.125,2 -0.14583,0.14583 -0.35417,0.22917 -0.5,0.375 -0.1875,0.1875 0.1875,0.9375 0,1.125 -0.50413,0.50413 -1.10244,-0.75 -1.75,-0.75 -0.54084,0 -1.22914,-0.11457 -1.75,-0.375 -0.68002,-0.34001 -1.61643,0.0668 -2.25,-0.25 -0.78994,-0.39497 -1.85162,-0.23831 -2.625,-0.625 -0.38797,-0.19398 -2.37214,-0.49714 -2.5,-0.625 -0.36028,-0.36028 -1.0773,-0.48092 -1.75,-0.75 z"
       id="path5300"
       inkscape:connector-curvature="0"
       inkscape:export-filename="/home/substack/projects/heatwave/static/img/or.png"
       inkscape:export-xdpi="90"
       inkscape:export-ydpi="90" />
    <path
       style="fill:#18c018;fill-opacity:1;stroke:none"
       d="m 524.25,445.73718 c 0.51901,-0.009 0.14998,2.64998 1,3.5 0.50988,0.50988 2.64452,0.14452 2.875,0.375 1.25243,1.25243 6.25173,0 8.25,0 0.60178,0 3.94592,-0.80408 3.625,-1.125 -0.0824,-0.0824 -1.00684,0.19092 -1.125,0.25 -0.66906,0.33453 -1.69894,-0.088 -2.375,0.25 -0.63333,0.31667 -1.74167,-0.31667 -2.375,0 -2.47082,1.23541 -8.57566,-1.62583 -9.875,-3.25 z"
       id="path5302"
       inkscape:connector-curvature="0"
       inkscape:export-filename="/home/substack/projects/heatwave/static/img/or.png"
       inkscape:export-xdpi="90"
       inkscape:export-ydpi="90" />
    <path
       style="fill:#8dfa4e;fill-opacity:1;stroke:none"
       d="m 528.25,445.48718 c 4.02611,-0.0852 7.58914,-0.5 11.5,-0.5 0.0986,0 0.6938,0.0688 0.75,0.125 0.1628,0.1628 0.80818,1.69183 0.625,1.875 -1.43711,1.43711 -8.5875,0.89375 -10.625,-0.125 -0.8331,-0.41655 -1.36147,-0.84188 -2.25,-1.375 z"
       id="path5304"
       inkscape:connector-curvature="0"
       inkscape:export-filename="/home/substack/projects/heatwave/static/img/or.png"
       inkscape:export-xdpi="90"
       inkscape:export-ydpi="90" />
    <path
       style="fill:#18c018;fill-opacity:1;stroke:none"
       d="m 557.25,445.61218 c -1.24616,1.60585 1.10855,-1.23355 -0.75,0.625 -0.63538,0.63539 0.0442,2.16917 0.5,2.625 0.12017,0.12017 0.0896,0.46456 0.25,0.625 1.36948,1.36948 8.87589,0 11,0 0.37412,0 2.75,-0.89841 2.75,-1 0,-0.0833 -0.16667,0 -0.25,0 -0.33333,0 -0.66667,0 -1,0 -0.70833,0 -1.41667,0 -2.125,0 -1.98553,0 -4.3155,0.15475 -5.875,-0.625 -1.06013,-0.53006 -3.55419,-2.06084 -4.5,-2.25 z"
       id="path5306"
       inkscape:connector-curvature="0"
       inkscape:export-filename="/home/substack/projects/heatwave/static/img/or.png"
       inkscape:export-xdpi="90"
       inkscape:export-ydpi="90" />
    <path
       style="fill:#8dfa4e;fill-opacity:1;stroke:none"
       d="m 561,445.48718 c 1.96751,-0.50922 9.50856,-1.36644 10.75,-0.125 0.16429,0.16429 1.03743,1.83758 0.75,2.125 -0.14356,0.14356 -0.80213,-0.42713 -0.875,-0.5 -0.45635,-0.45635 -1.7518,-0.6884 -2.375,-1 -1,-0.5 -2.75,0.5 -3.75,0 -0.5676,-0.2838 -3.59366,-0.31873 -4.5,-0.5 z"
       id="path5308"
       inkscape:connector-curvature="0"
       inkscape:export-filename="/home/substack/projects/heatwave/static/img/or.png"
       inkscape:export-xdpi="90"
       inkscape:export-ydpi="90" />
    <path
       style="fill:#18c018;fill-opacity:1;stroke:none"
       d="m 588.875,445.73718 c -0.68396,1.76093 0.43936,-1.44308 -0.25,0.625 -0.78075,2.34225 0.5643,2.34465 1.875,3 0.21437,0.10719 0.85155,0.26173 1.125,0.125 0.21437,-0.10718 0.85155,-0.26172 1.125,-0.125 1.60182,0.80091 4.04629,0 5.75,0 0.87803,0 1.79297,-0.14648 2.5,-0.5 0.2709,-0.13545 0.83801,-0.088 1,-0.25 0.0932,-0.0932 0.375,-0.25676 0.375,-0.125 0,0.26205 -3.19524,0 -3.5,0 -0.84042,0 -3.39754,-0.0225 -3.75,-0.375 -0.38005,-0.38005 -1.96767,0.28233 -2.375,-0.125 -0.55684,-0.55684 -2.13867,-0.51367 -2.75,-1.125 -0.28674,-0.28674 -0.61099,-0.61099 -1.125,-1.125 z"
       id="path5310"
       inkscape:connector-curvature="0"
       inkscape:export-filename="/home/substack/projects/heatwave/static/img/or.png"
       inkscape:export-xdpi="90"
       inkscape:export-ydpi="90" />
    <path
       style="fill:#8dfa4e;fill-opacity:1;stroke:none"
       d="m 591.125,445.11218 c 2.00798,-0.40607 11.2856,-1.4644 12.375,-0.375 0.1947,0.1947 1.46008,2.03993 1,2.5 -0.32707,0.32707 -1.97139,-0.36069 -2.25,-0.5 -0.51115,-0.25557 -1.21371,0.0181 -1.75,-0.25 -1.53546,-0.76773 -7.44224,-1.76155 -9.375,-1.375 z"
       id="path5312"
       inkscape:connector-curvature="0"
       inkscape:export-filename="/home/substack/projects/heatwave/static/img/or.png"
       inkscape:export-xdpi="90"
       inkscape:export-ydpi="90" />
    <path
       style="fill:#18c018;fill-opacity:1;stroke:none"
       d="m 621.75,444.98718 c -0.27778,-0.0283 -0.23192,-0.0715 -0.875,0.25 -1.00188,0.50094 0.4947,2.6144 0.75,3.125 0.195,0.38999 0.89664,0.375 1.375,0.375 1.03091,0 6.31891,-0.34054 7,0 0.4935,0.24675 1.29288,0.25 1.875,0.25 0.44773,0 3.62516,-0.49984 3.25,-0.875 -0.10625,-0.10625 -2.46028,0.125 -3.125,0.125 -0.50677,0 -2.10567,-0.10567 -2.375,-0.375 -0.28999,-0.28999 -2.29613,-0.125 -2.75,-0.125 -2.38915,0 -4.41446,-0.97365 -5.125,-2.75 z"
       id="path5314"
       inkscape:connector-curvature="0"
       inkscape:export-filename="/home/substack/projects/heatwave/static/img/or.png"
       inkscape:export-xdpi="90"
       inkscape:export-ydpi="90" />
    <path
       style="fill:#8afa4d;fill-opacity:1;stroke:none"
       d="m 624.375,444.48718 c 0.82767,-0.51051 4.15262,-0.0276 4.625,-0.5 0.2179,-0.2179 0.66108,0.23196 0.875,0.125 1.28782,-0.64391 4.66164,-0.46336 5.375,0.25 0.10879,0.10879 1.56179,2.31321 1.25,2.625 -0.37808,0.37808 -1.10383,-0.125 -1.625,-0.125 -2.27979,0 -5.60899,-0.74199 -7.375,-1.625 -0.30258,-0.15129 -1.41614,0.0839 -1.625,-0.125 -0.26247,-0.26246 -1.01093,-0.38046 -1.5,-0.625 z"
       id="path5316"
       inkscape:connector-curvature="0"
       inkscape:export-filename="/home/substack/projects/heatwave/static/img/or.png"
       inkscape:export-xdpi="90"
       inkscape:export-ydpi="90" />
    <path
       style="fill:#18c018;fill-opacity:1;stroke:none"
       d="m 653,445.61218 c 0.0385,0.62282 -4.7e-4,2.87453 0.75,3.625 0.0755,0.0755 0.63146,0 0.75,0 0.39126,0 3.16413,0.21087 3.25,0.125 0.29167,-0.29167 0.95833,-0.20833 1.25,-0.5 0.0755,-0.0755 0.63146,0 0.75,0 0.88259,0 1.3563,0.25 2.25,0.25 0.54128,0 1.20873,-0.25 1.75,-0.25 0.76815,0 1.58459,-0.25 2.375,-0.25 0.0763,0 0.4513,0.0487 0.5,0 0.14583,-0.14583 0.47917,-0.10417 0.625,-0.25 0.0417,-0.0417 0.125,-0.18392 0.125,-0.125 0,0.0833 -0.16667,0 -0.25,0 -0.33333,0 -0.66667,0 -1,0 -0.72136,0 -1.56832,0.34084 -2.25,0 -0.3,-0.15 -0.825,0.15 -1.125,0 -0.72884,-0.36442 -4.88771,-0.0127 -5.125,-0.25 -0.38176,-0.38176 -1.56978,0.0552 -2,-0.375 -0.24522,-0.24522 -0.87712,-0.43856 -1.25,-0.625 -0.69127,-0.34563 -1.17859,-0.39298 -1.375,-1.375 z"
       id="path5318"
       inkscape:connector-curvature="0"
       inkscape:export-filename="/home/substack/projects/heatwave/static/img/or.png"
       inkscape:export-xdpi="90"
       inkscape:export-ydpi="90" />
    <path
       style="fill:#8afa4d;fill-opacity:1;stroke:none"
       d="m 654.625,444.61218 c -0.18122,-0.75535 4.33017,0.20992 5.25,-0.25 1.49701,-0.74851 6.54589,-0.28955 7.625,0.25 0.499,0.2495 2.11588,2.25913 1.875,2.5 -0.46177,0.46177 -1.34749,-0.61124 -1.875,-0.875 -0.94383,-0.47191 -2.77747,0.17376 -3.625,-0.25 -0.8171,-0.40855 -2.40587,-0.0154 -3.125,-0.375 -1.45444,-0.72722 -4.32085,-0.63917 -6.125,-1 z"
       id="path5333"
       inkscape:connector-curvature="0"
       inkscape:export-filename="/home/substack/projects/heatwave/static/img/or.png"
       inkscape:export-xdpi="90"
       inkscape:export-ydpi="90" />
    <path
       style="fill:#18c018;fill-opacity:1;stroke:none"
       d="m 685.875,445.73718 c -0.0417,0.16667 0.0417,0.54167 -0.125,0.5 -0.16667,-0.0417 0.125,-0.67179 0.125,-0.5 0,0.37731 0.1418,0.8582 -0.125,1.125 -0.24262,0.24263 -0.24478,2.13022 0,2.375 0.17749,0.17749 1.4711,0 1.75,0 2.97944,0 6.32608,0.5 9.375,0.5 1.51226,0 2.03516,-0.20508 3.125,-0.75 0.28704,-0.14352 0.96742,-0.21742 1.125,-0.375 0.0179,-0.0179 0.375,-0.26968 0.375,-0.25 0,0.25 -0.5,0 -0.75,0 -1.03803,0 -2.03865,0.125 -3.125,0.125 -3.00726,0 -6.15048,-0.45024 -8.5,-1.625 -0.39989,-0.19995 -1.58722,-0.0872 -1.875,-0.375 -0.31144,-0.31144 -0.72226,-0.61945 -1.375,-0.75 z"
       id="path5335"
       inkscape:connector-curvature="0"
       inkscape:export-filename="/home/substack/projects/heatwave/static/img/or.png"
       inkscape:export-xdpi="90"
       inkscape:export-ydpi="90" />
    <path
       style="fill:#8afa4d;fill-opacity:1;stroke:none"
       d="m 688.75,444.86218 c 0.0973,0.13573 0.81378,-0.43622 1.125,-0.125 1.21029,1.21029 10.07165,-1.67835 11.5,-0.25 0.17978,0.17978 1.38542,2.73958 0.875,3.25 -0.19913,0.19913 -1.13996,-1.01496 -1.25,-1.125 -0.36321,-0.36321 -1.33087,-0.33087 -1.625,-0.625 -0.0793,-0.0793 -0.39593,0.052 -0.5,0 -1.33048,-0.66524 -7.3015,-1.0515 -7.625,-1.375 -0.40873,-0.40873 -2.17244,0.25 -2.5,0.25 z"
       id="path5337"
       inkscape:connector-curvature="0"
       inkscape:export-filename="/home/substack/projects/heatwave/static/img/or.png"
       inkscape:export-xdpi="90"
       inkscape:export-ydpi="90" />
    <path
       style="fill:#2bf92b;fill-opacity:1;stroke:#000000;stroke-width:2;stroke-linecap:round;stroke-linejoin:round;stroke-miterlimit:4;stroke-opacity:1;stroke-dasharray:none"
       d="m 355.71536,430.64277 c -1.41421,-0.31894 -2.93694,0.28012 -3.40625,1.21875 -0.0767,0.15347 0.12288,1.81462 0.375,3.5625 -1.15963,-2.31926 -1.53062,-1.76762 -3.5625,-2.5 -5.82209,-2.09854 -9.70161,-0.66895 -10.71875,-0.0937 -1.20406,0.58534 -2.4756,2.25593 -3.625,3.25 -1.37437,1.18863 -1.71322,2.68198 -2.59375,3.5625 -0.85412,1.51972 -0.48159,3.41519 -0.4375,4.375 0.22208,0.22208 8.44535,-0.4141 8.46875,-0.4375 0.44485,-1.94387 1.33886,-2.94128 3.375,-3.1875 1.53086,-0.0495 2.71727,-0.14963 4.25,-0.0312 1.5859,0.26012 3.78401,0.11698 4.75,1.625 1.84326,1.12128 1.69675,2.31982 1.40625,4.03125 -2.54083,-2.54084 -6.90973,-1.20751 -9.71875,-0.875 -3.56493,0.42198 -5.49673,2.70846 -6.375,3.1875 -2.48285,1.35425 -8.51132,8.12717 -5.34283,13.17065 0.78693,1.25261 3.8395,2.21451 4.84375,3.21875 0.82054,0.82055 11.9467,0.69853 12.96875,0.1875 0.31351,-0.15675 2.84118,-2.69715 3.4375,-3.4375 0.0654,0.79114 0.49901,2.46776 1.5,3.46875 0.30933,0.30934 7.12817,0.30934 7.4375,0 0.15355,-0.15354 0.34375,-1.98889 0.34375,-2.125 0,-0.21575 0.13775,-1.26849 0,-1.40625 -1.08157,-1.08156 0.40812,-3.80877 -0.34375,-5.3125 -2.54131,-5.08264 1.2282,-21.53528 -1.00092,-24.1394 -1.11707,-2.04407 -2.38645,-1.44142 -6.03125,-1.3126 z m -6.8125,20.40625 c 2.23364,-0.18188 4.13768,-0.51423 4.8125,1.2187 0,1.23337 -0.53333,2.82958 -0.78033,3.0769 l -2.75,2.75 c -1.27939,1.27939 -4.54562,0.97923 -7.125,0.5 -0.99907,-0.18562 -1.739,-1.59054 -1.46079,-2.46967 0.34722,-1.09721 -0.56707,-1.26796 1.11612,-3.10723 0.96991,-1.00702 3.66773,-1.91141 6.1875,-1.96875 z"
       id="path5484"
       inkscape:connector-curvature="0"
       sodipodi:nodetypes="cccscscccccccssssccccscsccccssssccc" />
    <path
       style="fill:#2bf92b;fill-opacity:1;stroke:#000000;stroke-width:2;stroke-linecap:round;stroke-linejoin:round;stroke-miterlimit:4;stroke-opacity:1;stroke-dasharray:none"
       d="m 368.47574,463.2467 c -0.44051,-1.70719 -0.23334,-7.08649 -0.0513,-11.42323 0.041,-0.97708 0.25564,-3.92031 0.73175,-4.78703 0.17532,-0.31915 -0.14792,-0.6912 -0.13923,-0.89822 0.0669,-1.59377 0.32036,-3.41673 0.37851,-4.80209 0.0473,-1.12755 -0.40459,-3.00674 -0.35039,-4.29785 0.0679,-1.61734 0.52344,-5.48342 0.2678,-5.76406 -0.3401,-0.37333 4.13863,-1.07243 4.82104,-1.04331 0.72946,0.0312 4.27111,-0.91823 4.32718,0.6922 0.0685,1.96797 -0.77128,2.73181 2.10442,1.43192 1.10321,-0.49867 2.65315,-0.42207 3.73142,-0.37602 0.37003,0.0158 3.24529,-0.53699 3.71646,-0.0197 0.62949,0.69105 2.07628,0.97488 2.7586,1.7239 1.13483,1.24576 2.68214,2.75801 4.06686,4.27809 1.46356,2.60914 1.11839,5.97318 1.76797,8.46284 0.29373,1.03244 0.647,6.3903 0.23075,7.14801 -0.61386,1.11744 1.25041,10.13151 -0.14776,11.95012 -0.89431,1.16323 -6.67637,0.31101 -9.73644,0.1196 0.26764,-1.5246 -0.24452,-2.00932 -0.21865,-3.22152 0.011,-0.26225 0.50133,-3.35594 0.33365,-3.73327 -0.7139,-1.60658 0.0739,-4.93921 -0.0766,-6.60608 -0.17673,-1.95739 0.16306,-8.39279 -0.67088,-9.30825 -0.59904,-0.6576 -2.383,-2.24328 -4.32574,-2.32616 -1.28409,-0.0547 -1.81408,0.42051 -3.61462,1.80865 -1.18444,1.09755 -0.25835,10.36969 -0.36176,12.83324 -0.0556,1.32437 0.56675,9.06232 0.31764,9.29317 -0.41446,0.38406 -0.89879,0.49365 -1.62696,0.82281 -0.14607,0.066 -8.02665,-0.4746 -8.11697,-0.52507 -0.62665,-0.35019 -0.0239,-1.36427 -0.1168,-1.43263"
       id="path5489"
       inkscape:connector-curvature="0"
       sodipodi:nodetypes="cscssscssssssccssccsssccsscsc" />
    <path
       style="fill:#8dfa4e;fill-opacity:1;stroke:none;stroke-width:2;stroke-miterlimit:4;stroke-dasharray:none"
       d="m 415.20123,434.19792 c 1.78937,-0.8797 5.97315,0.7255 8.0972,2.94586 0.4963,0.51881 1.14281,0.89011 1.15482,1.20718 0.0136,0.36078 -2.41278,-0.84263 -2.70537,-1.1485 -1.57604,-1.6475 -4.45558,-1.25668 -6.54665,-3.00454 z"
       id="path5534"
       inkscape:connector-curvature="0" />
    <path
       style="fill:#8dfa4e;fill-opacity:1;stroke:none;stroke-width:2;stroke-miterlimit:4;stroke-dasharray:none"
       d="m 425.99155,414.52573 c 0.74165,-0.24253 2.8827,-0.1061 4.49634,1.58107 0.0682,0.0713 0.18825,1.07615 0.26879,1.24073 0.55964,1.14353 1.09155,10.1696 0.6281,10.73392 -0.0716,0.0873 0.47848,1.809 0.3066,2.24001 -0.53841,1.35011 0.56293,9.01202 0.64701,11.23356 0.0655,1.73135 0.11581,9.00571 -0.30521,9.51836 -0.17327,0.21097 0.38539,1.98684 0.0756,1.99857 -0.22151,0.008 -0.0189,-0.49965 -0.0284,-0.74947 -0.0223,-0.58852 -0.24935,-0.72715 -0.27825,-1.49054 -0.078,-2.06166 -0.81227,-3.87857 -0.89145,-5.97056 -0.0456,-1.20393 -1.71852,-9.92884 -1.28316,-10.45895 0.5716,-0.696 0.0783,-3.79193 0.0324,-5.0048 -0.21213,-5.6044 0.66559,-12.17227 -3.66845,-14.8719 z"
       id="path5536"
       inkscape:connector-curvature="0" />
    <path
       style="fill:#18c018;fill-opacity:1;stroke:none;stroke-width:2;stroke-miterlimit:4;stroke-dasharray:none"
       d="m 426.93044,462.77475 c 0.0865,0.3303 0.55152,0.89645 0.25933,0.9909 -0.29219,0.0944 -0.27233,-1.33425 -0.25933,-0.9909 0.21553,5.69453 5.61204,1.75454 5.66062,3.03807 0.0202,0.53322 -0.79678,-0.59297 -1.14536,-0.95736 -0.0984,-0.10282 -4.13194,-2.00937 -4.51526,-2.08071 z"
       id="path5538"
       inkscape:connector-curvature="0" />
    <path
       style="fill:#18c018;fill-opacity:1;stroke:none;stroke-width:2;stroke-miterlimit:4;stroke-dasharray:none"
       d="m 425.68774,435.80245 c -0.37267,-1.19915 -0.31584,-2.48367 -0.36335,-3.73893 -0.11542,-3.04946 -0.20603,-5.44349 -0.32148,-8.49392 -0.0261,-0.68984 -0.55354,-5.23281 -0.19857,-5.24625 0.353,-0.0134 0.55104,2.83737 0.57539,3.48073 0.0711,1.87875 2.12073,11.26843 1.1373,12.46591 -0.51082,0.622 -0.27274,-0.24783 -0.82929,1.53246 z"
       id="path5540"
       inkscape:connector-curvature="0" />
    <path
       style="fill:#18c018;fill-opacity:1;stroke:none"
       d="m 334.43503,453.61218 c -1.73926,3.58236 -2.83207,4.91793 1,8.75 0.5708,0.5708 1.976,0.113 2.75,0.5 1.75667,0.87834 3.21921,1.5 5.25,1.5 3.57717,0 5.03356,-0.53356 6.75,-2.25 0.92592,-0.92592 2.73722,-1.75 2.5,-1.75 -0.85302,0 -2.11133,0.61133 -2.5,1 -0.5,0.5 -2,0 -2.5,0.5 -0.0697,0.0697 -2.35744,0 -3.25,0 -5.69898,0 -11.05996,-2.95017 -10,-8.25 z"
       id="path5542"
       inkscape:connector-curvature="0" />
    <path
       style="fill:#18c018;fill-opacity:1;stroke:none"
       d="m 337.43503,434.61218 c -0.33333,0.25 -0.66667,0.5 -1,0.75 2.24199,-1.96527 -0.41834,0.33669 -0.75,1 -0.30865,0.61731 -0.6541,0.6541 -1,1 -0.66387,0.66388 -0.4197,2.4197 -1,3 -0.83081,0.83081 -0.75,2.27506 -0.75,2.25 0,-0.16585 0.49749,0.25126 1,0 0.62481,-0.3124 1.98724,-0.5 2.5,-0.5 0.51791,0 2.92041,0.32959 3.25,0 0.125,-0.125 -0.125,-0.625 0,-0.75 0.85903,-0.85902 2.68357,-2 4.5,-2 0.52461,0 7,-0.32151 7,0.25 0,0.28446 -1.99227,-0.74227 -2,-0.75 -0.55002,-0.55002 -3.00547,-0.25 -4,-0.25 -1.61286,0 -4.02268,-0.36366 -5.25,0.25 -0.30573,0.15287 -1.88606,1.11394 -2,1 -0.98653,-0.98653 -0.5,-3.98743 -0.5,-5.25 z"
       id="path5544"
       inkscape:connector-curvature="0" />
    <path
       style="fill:#18c018;fill-opacity:1;stroke:none"
       d="m 369.93503,433.86218 c 0.33328,0.90509 0,5.5365 0,9 0,2.10199 0.0493,6.7007 -0.25,7 -0.58333,0.58334 0.58333,2.91667 0,3.5 -0.23062,0.23062 -0.83542,8.41459 -0.75,8.5 0.54463,0.54463 1.09162,1.75 1.75,1.75 0.89572,0 5.75,0.33596 5.75,0 0,-0.82066 -2.57278,-2.57277 -3,-3 -0.91505,-0.91505 -1.15756,-3.06511 -1.75,-4.25 -0.34279,-0.68557 0.52105,-2.72895 0,-3.25 -1.76462,-1.76461 0.70079,-15.34842 -0.5,-17.75 -0.29107,-0.58214 -0.84341,-0.99177 -1.25,-1.5 z"
       id="path5546"
       inkscape:connector-curvature="0" />
    <path
       style="fill:#18c018;fill-opacity:1;stroke:none"
       d="m 387.68503,443.86218 c 1.20861,2.18698 -0.75022,6.99957 0.25,9 0.66976,1.33951 0.75,3.12039 0.75,4.25 0,0.44509 0.25274,2.24726 0.25,2.25 -0.11634,0.11634 -0.72241,3.77759 -0.5,4 0.32087,0.32088 0.75966,0.50966 1,0.75 0.45633,0.45633 4.53274,1.46727 5.25,0.75 0.54043,-0.54043 -1.93303,-1.68303 -2,-1.75 -0.83404,-0.83403 -1.56377,-2.81377 -2.25,-3.5 -0.34139,-0.34139 0.0914,-1.90861 -0.25,-2.25 -1.59855,-1.59855 -1.3436,-10.60901 -2.5,-13.5 z"
       id="path5548"
       inkscape:connector-curvature="0" />
    <path
       style="fill:#8dfa4e;fill-opacity:1;stroke:none"
       d="m 355.18503,431.86218 c 0.33333,-0.0833 0.91667,-0.58333 1,-0.25 0.0833,0.33334 -1.34359,0.25 -1,0.25 0.81635,0 3.84631,-0.65369 4.5,0 0.50526,0.50526 0.57706,0.90411 1,1.75 0.12997,0.25994 0.25,11.6622 0.25,14 0,0.95649 -0.60868,5.39133 0,6 0.0469,0.0469 0.48566,3 0.25,3 -0.41076,0 -0.99404,-6.74404 -1.25,-7 -0.90225,-0.90225 -0.76416,-5.77831 -1.5,-7.25 -0.3858,-0.77161 -0.95821,-2.9582 -1.5,-3.5 -0.625,-0.625 0.125,-2.625 -0.5,-3.25 -0.31683,-0.31683 -1.5,-2.21429 -1.5,-2.5 0,-0.42492 0.16667,-0.83333 0.25,-1.25 z"
       id="path5550"
       inkscape:connector-curvature="0" />
    <path
       style="fill:#8dfa4e;fill-opacity:1;stroke:none"
       d="m 371.93503,432.11218 c 0.23586,0.89343 3.89348,-1.10652 4.75,-0.25 0.49183,0.49183 -0.34992,2.15008 0.25,2.75 0.0646,0.0646 3.96707,-1.21707 4,-1.25 0.48327,-0.48327 2.56555,0.25 3,0.25 3.12565,0 5.58655,1.58655 7.75,3.75 0.49233,0.49233 0.069,2.06902 0.5,2.5 0.27756,0.27756 1,1.88316 1,2.5 0,1.69759 2.62572,8.87429 1,10.5 -0.25735,0.25735 0.41407,0.42187 0.25,0.75 -0.697,1.39399 0.68123,3.75 0,3.75 -0.45378,0 -0.54213,-3.08425 -0.75,-3.5 -0.36446,-0.72892 -0.1874,-2.9374 -0.25,-3 -0.7101,-0.7101 -1.14404,-9.39404 -2.5,-10.75 -1.1387,-1.1387 -2.26285,-3.01285 -3.25,-4 -0.671,-0.671 -1.98809,-0.73809 -2.75,-1.5 -1.32983,-1.32983 -7.70967,1.79033 -7.75,1.75 -1.75208,-1.75208 -1.9628,-3.59256 -5.25,-4.25 z"
       id="path5552"
       inkscape:connector-curvature="0" />
    <path
       style="fill:#8dfa4e;fill-opacity:1;stroke:none"
       d="m 340.43503,452.11218 c -0.58452,2.67035 -2.28963,4.21037 1.25,7.75 0.54548,0.54548 2.60111,0.75 3.5,0.75 0.66667,0 2,-0.66666 2,0 0,0.31966 -4.1132,-0.86319 -4.25,-1 -2.87266,-2.87265 -2.5,-3.50464 -2.5,-7.5 z"
       id="path5567"
       inkscape:connector-curvature="0" />
    <path
       style="fill:#18c018;fill-opacity:1;stroke:none"
       d="m 342.68503,450.11218 c 0.62998,-1.10659 7.76899,-4.73101 11.75,-0.75 0.28063,0.28063 1.0038,0.5076 1.25,1 1.17357,2.34713 -0.72534,4.45067 -1.5,6 -0.21926,0.43852 -2,1.79533 -2,1.75 0,-0.64617 1.5996,-2.3496 2,-2.75 0.50882,-0.50881 0.5,-2.86623 0.5,-3.25 0,-0.0976 0.46844,-0.28155 0.25,-0.5 -2.17943,-2.17943 -8.98591,-1.5 -12.25,-1.5 z"
       id="path5569"
       inkscape:connector-curvature="0" />
    <path
       style="fill:#8dfa4e;fill-opacity:1;stroke:none"
       d="m 376.43503,460.11218 c -0.16667,-0.33333 -0.83333,-0.83333 -0.5,-1 0.33333,-0.16666 0.76352,1.26353 0.5,1 -1.38849,-1.38849 -0.66522,-3.41522 -1.75,-4.5 -0.15858,-0.15858 0.10407,-0.79185 0,-1 -1.25942,-2.51884 -1.04293,-6.91413 0.25,-9.5 0.54461,-1.08923 0.0804,-2.5804 1,-3.5 0.11785,-0.11785 0.5,-0.16666 0.5,0 0,0.45132 -0.6537,2.9037 -1,3.25 -0.55997,0.55997 1.54618,12.04619 2,12.5 0.074,0.074 0.0655,1.40174 0,1.5 -0.29598,0.44398 -1.37731,0.87269 -1,1.25 0.37731,0.37731 0.79245,-0.72547 1.25,-1 0.21437,-0.12862 0.23212,0.65715 0,0.75 -0.39453,0.15781 -0.83333,0.16667 -1.25,0.25 z"
       id="path5597"
       inkscape:connector-curvature="0" />
    <path
       style="fill:#18c018;fill-opacity:1;stroke:none;stroke-width:2;stroke-miterlimit:4;stroke-dasharray:none"
       d="m 418.51036,439.57661 c 0.54483,0.10431 0.57635,-1.31701 1.5411,-0.3085 0.50478,0.52767 2.64264,0.60305 3.14838,1.13173 0.55691,0.58216 1.22827,1.28397 1.84771,1.93149 0.26946,0.28168 0.009,1.20888 0.27824,1.49055 0.79926,0.83551 2.34014,4.20657 1.52762,5.19594 -0.35794,0.43584 -0.007,5.75439 -0.22555,5.76265 -0.59527,0.0225 0.41689,-1.29161 0.81985,-1.78228 0.0995,-0.12119 0.97713,-6.4166 0.39977,-7.02015 -0.50043,-0.5231 -0.25866,-1.94994 -0.75908,-2.47306 -0.66186,-0.69187 -0.83723,-2.31482 -1.67347,-3.18898 -1.81939,-1.90189 -3.92989,-3.63478 -6.90457,-0.73939 z"
       id="path5612"
       inkscape:connector-curvature="0" />
  </g>
</svg>
