<?xml version="1.0" encoding="UTF-8" standalone="no"?>
<!-- Created with Inkscape (http://www.inkscape.org/) -->

<svg
   xmlns:dc="http://purl.org/dc/elements/1.1/"
   xmlns:cc="http://creativecommons.org/ns#"
   xmlns:rdf="http://www.w3.org/1999/02/22-rdf-syntax-ns#"
   xmlns:svg="http://www.w3.org/2000/svg"
   xmlns="http://www.w3.org/2000/svg"
   xmlns:sodipodi="http://sodipodi.sourceforge.net/DTD/sodipodi-0.dtd"
   xmlns:inkscape="http://www.inkscape.org/namespaces/inkscape"
   width="744.09448819"
   height="1052.3622047"
   id="svg5614"
   version="1.1"
   inkscape:version="0.48.1 r9760"
   sodipodi:docname="upboat.svg">
  <defs
     id="defs5616" />
  <sodipodi:namedview
     id="base"
     pagecolor="#ffffff"
     bordercolor="#666666"
     borderopacity="1.0"
     inkscape:pageopacity="0.0"
     inkscape:pageshadow="2"
     inkscape:zoom="0.70710678"
     inkscape:cx="201.51397"
     inkscape:cy="616.70886"
     inkscape:document-units="px"
     inkscape:current-layer="layer1"
     showgrid="false"
     inkscape:window-width="1364"
     inkscape:window-height="766"
     inkscape:window-x="0"
     inkscape:window-y="0"
     inkscape:window-maximized="0" />
  <metadata
     id="metadata5619">
    <rdf:RDF>
      <cc:Work
         rdf:about="">
        <dc:format>image/svg+xml</dc:format>
        <dc:type
           rdf:resource="http://purl.org/dc/dcmitype/StillImage" />
        <dc:title></dc:title>
      </cc:Work>
    </rdf:RDF>
  </metadata>
  <g
     inkscape:label="Layer 1"
     inkscape:groupmode="layer"
     id="layer1">
    <path
       style="fill:#ac9393;fill-opacity:1;stroke:#000000;stroke-width:2;stroke-linecap:butt;stroke-linejoin:miter;stroke-miterlimit:4;stroke-opacity:1;stroke-dasharray:none"
       d="m 243,602.36218 c -7.53639,11.27396 -10.41659,12.16682 -5,23 0.80397,1.60793 -0.27927,6.72073 1,8 8.10727,8.10727 19.8665,9.8665 27,17 1.05794,1.05794 5.24534,6.37733 8,5 9.51245,-6.9515 49.46896,-18.36429 41,-21 -1.16667,-1.16666 0.16667,-4.83333 -1,-6 -1.48939,-1.48939 -16.86829,-4.62276 -21,-6 -4.71609,-1.57203 -7.71399,-8.85699 -12,-11 -2.10819,-1.05409 -5,-7.35702 -5,-5 0,0.75854 4.07106,3.53553 5,4"
       id="path7300"
       inkscape:connector-curvature="0"
       sodipodi:nodetypes="csssccssssc"
       inkscape:export-filename="/home/substack/projects/heatwave/static/img/upboat.png"
       inkscape:export-xdpi="90"
       inkscape:export-ydpi="90" />
    <path
       style="fill:#9c7f7f;stroke:none;stroke-width:1px;stroke-linecap:butt;stroke-linejoin:miter;stroke-opacity:1;fill-opacity:1"
       d="m 235.5,612.86218 c -6.1717,4.00127 4.34785,-4.34785 -2.5,2.5 -1.00536,1.00536 -2.32652,3.84696 -1.5,5.5 0.64549,1.29099 0.33217,3.16434 1,4.5 5.85739,11.71479 25.9479,11.9479 34.5,20.5 1.16947,1.16947 3.9635,9.01825 7,7.5 4.51558,-2.25779 22.17021,-14.5 24.5,-14.5 0.89753,0 -1.86535,0.36535 -2.5,1 -0.89663,0.89663 -4.29663,2 -6,2 -1.59207,0 -2.73378,0.86689 -4,1.5 -2.57267,1.28634 -16.4558,1.5442 -17.5,0.5 -0.19482,-0.19482 0,-1.69488 0,-2 0,-5.59133 7.53617,-4.26808 12,-6.5 1.00285,-0.50142 3.26045,-0.76045 4,-1.5 0.16667,-0.16666 0.5,-0.7357 0.5,-0.5 0,0.4514 -9.15623,1 -10,1 -1.91923,0 -10.97412,2.52589 -12.5,1 -1.12655,-1.12655 7.85412,-6.35412 8,-6.5 1.07805,-1.07805 5.37986,-1.5 4.5,-1.5 -1.99794,0 -11.33284,2.66716 -13,1 -1.4314,-1.4314 -2.32499,-2.17501 -0.5,-4 0.65463,-0.65462 3.56135,-2.5 2.5,-2.5 -0.81708,0 -6.47358,1.52642 -7.5,0.5 -2.09898,-2.09898 -15.08146,-3.58146 -18,-6.5 -1.37646,-1.37646 0.41748,-0.94951 -3,-3 z"
       id="path7364"
       inkscape:connector-curvature="0"
       inkscape:export-filename="/home/substack/projects/heatwave/static/img/upboat.png"
       inkscape:export-xdpi="90"
       inkscape:export-ydpi="90" />
    <path
       style="fill:#917171;fill-opacity:1;stroke:none"
       d="m 235,631.36218 c 5.01165,2.79812 8.74226,4.62113 13.5,7 5.42501,2.71251 11.40596,5.45298 16.5,8 3.80537,1.90269 5.2071,5.2071 7.5,7.5 0.61029,0.61029 5.5,-6.37562 5.5,-5 0,1.22381 -4.59223,-0.59223 -5,-1 -0.59882,-0.59882 -8.65636,-6.34363 -7.5,-7.5 0.13647,-0.13647 -0.27287,-2.27286 -1,-3 -1.20903,-1.20902 -5.39718,-0.29436 -6.5,-2.5 -0.88396,-1.76793 1.56436,-3.5 1.5,-3.5 -3.37189,0 -5.76204,-2.26203 -7.5,-4 -0.63465,-0.63465 1,-3.39753 1,-2.5 0,0.37268 -0.66667,-0.33333 -1,-0.5 -3.26522,-1.63261 -7.75417,1.62292 -11,0 -1.33971,-0.66985 -8.73254,-5.76746 -10.5,-4 -0.37255,0.37255 0.5,0.4853 0.5,1 0,4.66347 3.76088,6.0653 4,7.5 0.137,0.822 0,1.66667 0,2.5 z"
       id="path7394"
       inkscape:connector-curvature="0"
       sodipodi:nodetypes="cssssssssssscssssc"
       inkscape:export-filename="/home/substack/projects/heatwave/static/img/upboat.png"
       inkscape:export-xdpi="90"
       inkscape:export-ydpi="90" />
    <path
       style="fill:#ac9393;stroke:#000000;stroke-width:2;stroke-linecap:butt;stroke-linejoin:miter;stroke-opacity:1;fill-opacity:1;stroke-miterlimit:4;stroke-dasharray:none"
       d="m 235,608.36218 c 0.43586,6.35408 2.23108,13.46215 5,19 3.39922,6.79843 9.57645,27.42355 6,31 -2.3141,2.31411 -20.00413,2.50207 -25,5 -3.61912,1.80957 -12.93808,5 -17,5 -4.75666,0 -10,5.40343 -10,4 0,-6.02743 -23.23779,-51.76221 -16,-59 2.70082,-2.70081 6.41222,-7.41222 9,-10 2.26314,-2.26313 40.95493,6.40902 48,5 z"
       id="path7285"
       inkscape:connector-curvature="0"
       inkscape:export-filename="/home/substack/projects/heatwave/static/img/upboat.png"
       inkscape:export-xdpi="90"
       inkscape:export-ydpi="90" />
    <path
       style="fill:#6c5353;fill-opacity:1;stroke:#000000;stroke-width:2;stroke-linecap:butt;stroke-linejoin:miter;stroke-miterlimit:4;stroke-opacity:1;stroke-dasharray:none"
       d="m 296.50436,469.7062 c -3.85404,3.28992 -1.25789,29.7328 -1.25789,48.76435 0,15.78092 -2.5158,32.28841 -2.5158,46.3856 0,8.03369 -3.51685,46.14276 -7.54739,49.95373 -7.43638,7.03128 -30.76262,5.40503 -37.73695,-1.18937 -1.88685,-1.78406 -6.91845,-0.59469 -8.8053,-2.37875 -0.31059,-0.29368 2.17662,-9.83569 0,-11.89375 -0.29451,-0.27846 -7.54739,-59.17732 -7.54739,-71.36247 0,-2.4562 -2.90679,-26.53593 -3.77369,-27.35561 -1.06276,-1.00486 -3.7737,-5.89055 -3.7737,-8.32562 0,-1.18937 2.51579,0 3.7737,0"
       id="path7127"
       inkscape:connector-curvature="0"
       inkscape:export-filename="/home/substack/projects/heatwave/static/img/upboat.png"
       inkscape:export-xdpi="90"
       inkscape:export-ydpi="90" />
    <path
       style="fill:#594444;stroke:none;stroke-width:1px;stroke-linecap:butt;stroke-linejoin:miter;stroke-opacity:1;fill-opacity:1"
       d="m 235.113,506.8293 c -0.2357,0.47141 -0.60374,0.8974 -0.7071,1.41421 -0.19407,0.97035 0.7071,3.29878 0.7071,4.5962 0,3.24585 -0.41433,6.58478 0,9.89949 0.80564,6.44512 2.99651,12.50766 4.24265,18.73833 0.79109,3.95548 0.4338,13.0338 -0.35356,16.97057 -0.65176,3.25882 0.80485,7.03365 0,10.25304 -1.24193,4.96774 -1.6167,10.00235 -2.82842,14.84925 -0.70722,2.82886 0.21923,6.0598 -0.70711,8.83883 -0.60267,1.80802 0.70711,3.5558 0.70711,4.94975 0,0.37394 -0.60826,0.9618 -0.70711,1.06066 -0.76474,0.76474 -0.56354,5.94398 0,7.07107 0.25256,0.50511 2.10243,2.6422 2.47487,2.82842 1.99926,0.99963 3.87453,1.40694 6.01041,2.47488 1.30271,0.65135 4.68188,0.0857 5.65685,1.06066 0.64684,0.64683 6.22179,3.18198 7.42463,3.18198 2.32288,0 5.44657,0.42519 7.42462,1.41421 0.12851,0.0643 3.51411,0.37498 3.18198,0.70711 -0.23571,0.2357 -0.47141,-0.47141 -0.70711,-0.70711 -1.42909,-1.42908 -2.54612,-1.5567 -3.53553,-3.53553 -0.36482,-0.72964 -0.16467,-2.63954 -0.70711,-3.18198 -0.6835,-0.6835 2.59085,-5.18732 3.18198,-4.5962 0.29254,0.29254 -1.57122,-0.43206 -2.12132,-0.7071 -1.12058,-0.56029 -1.28129,-1.9884 -2.12132,-2.82843 -0.83113,-0.83113 -0.26553,-1.59171 -0.70711,-2.47487 -2.18157,-4.36315 2.36636,-10.49809 4.24264,-12.37437 0.053,-0.053 -3.88851,-4.9486 -4.24264,-5.65686 -0.65009,-1.30018 -2.07626,-6.76257 -0.7071,-8.13173 0.28972,-0.28972 3.24417,-2.76622 3.18198,-2.82842 -1.15469,-1.15469 -4.18886,-4.3502 -2.82843,-7.07107 2.21581,-4.43161 5.70177,-3.934 8.13173,-6.36396 0.66528,-0.66528 -5.82855,-2.66691 -4.5962,-6.36396 0.82224,-2.4667 4.16993,-5.23059 5.3033,-6.36396 0.64656,-0.64656 -1.76776,-4.56237 -1.76776,-5.65686 0,-0.55171 0.53506,-1.95873 0.7071,-2.47487 0.56193,-1.68579 3.88909,-3.0092 3.88909,-4.5962 0,-0.0603 -3.37921,-1.96499 -4.24264,-2.82842 -1.71722,-1.71722 2.83462,-12.36199 2.12132,-13.78858 -1.17926,-2.35853 -5.33872,-1.80319 -7.07107,-3.53554 -3.95319,-3.95319 2.83407,-10.07345 -4.59619,-13.78858 -2.79552,-1.39776 -15.88186,4.56815 -17.67767,6.36396 -0.99452,0.99452 -0.95851,1.36314 -2.47487,2.12132 -0.60209,0.30105 -0.76044,0.9517 -1.41422,1.06066 -0.58124,0.0969 -1.25266,-0.28617 -1.76777,0 -0.80461,0.44701 -1.11691,2.77217 -1.76776,2.12132 -0.65086,-0.65085 1.11691,-1.47047 1.76776,-2.12132 z"
       id="path7487"
       inkscape:connector-curvature="0"
       inkscape:export-filename="/home/substack/projects/heatwave/static/img/upboat.png"
       inkscape:export-xdpi="90"
       inkscape:export-ydpi="90" />
    <path
       style="fill:#6c5353;fill-opacity:1;stroke:#000000;stroke-width:2;stroke-linecap:butt;stroke-linejoin:miter;stroke-miterlimit:4;stroke-opacity:1;stroke-dasharray:none"
       d="m 170.8772,495.03142 c 1.11885,15.85624 -0.20292,48.36128 5.98774,60.6581 3.2491,6.45386 0.37702,16.21078 3.59264,22.59811 4.03079,8.00659 -1.08426,27.46814 3.59264,32.11311 9.09794,9.03586 14.11823,13.08312 31.13621,13.08312 7.13458,0 13.64871,-3.56812 19.16076,-3.56812 0.51893,0 2.39509,-1.4669 2.39509,-1.18938 0,0.38113 3.59276,-10.70412 2.39509,-13.08312 -0.64792,-1.287 1.67678,-33.77844 2.3951,-34.49186 3.22808,-3.20605 1.19754,-18.01314 1.19754,-23.78748 0,-21.84417 -2.39509,-56.45367 -2.39509,-63.03685"
       id="path7140"
       inkscape:connector-curvature="0"
       inkscape:export-filename="/home/substack/projects/heatwave/static/img/upboat.png"
       inkscape:export-xdpi="90"
       inkscape:export-ydpi="90" />
    <path
       style="fill:#ac9393;fill-opacity:1;stroke:#000000;stroke-width:2;stroke-linecap:butt;stroke-linejoin:miter;stroke-miterlimit:4;stroke-opacity:1;stroke-dasharray:none"
       d="m 465.38256,204.51714 c 0.0732,-2.20109 5.37328,-0.68518 6.9313,-3.80226 0.58942,-1.17925 7.33062,-2.44465 8.72027,-2.90807 0.48834,-0.16285 4.12515,-2.40996 5.36632,-1.78958 2.50513,1.25214 12.72045,9.35096 12.52343,10.73142 -0.8184,5.73439 -1.62329,17.78607 -3.35121,21.2431 -0.72644,1.45338 -5.93846,3.18055 -7.3787,2.46068 -0.7454,-0.37258 -2.60853,1.49106 -3.35394,1.11849 -2.4953,-1.24722 -1.52163,-13.05809 -3.13238,-13.8632 -1.16747,-0.58353 -8.86512,4.70887 -9.39106,3.13177 -0.10501,-0.31488 1.23538,0.55338 1.56528,0.2234 1.23584,-1.23619 0.0693,-0.48574 0.22339,-1.56529"
       id="path6816"
       inkscape:connector-curvature="0"
       inkscape:export-filename="/home/substack/projects/heatwave/static/img/upboat.png"
       inkscape:export-xdpi="90"
       inkscape:export-ydpi="90" />
    <path
       style="fill:#ac9393;fill-opacity:1;stroke:#000000;stroke-width:2;stroke-linecap:butt;stroke-linejoin:miter;stroke-miterlimit:4;stroke-opacity:1;stroke-dasharray:none"
       d="m 453.41989,206.64302 c 3.10384,-0.16085 25.30471,-6.82106 25.49033,-6.26445 0.0142,0.0427 4.59898,5.65258 5.81463,6.2602 1.0201,0.50988 5.36506,4.91211 5.81462,6.2602 0.21091,0.63243 -0.79999,1.129 -0.89417,1.78898 -0.53246,3.73081 -0.54884,7.80806 -1.78746,10.28616 -0.54015,1.08066 0.11932,7.41409 -0.44619,7.60268 -2.77905,0.92677 -6.89756,0.44816 -10.28584,0.44862 -2.08726,2.8e-4 -6.22682,1.44445 -6.26082,1.34249 -1.67136,-5.01181 -1.2599,-10.40164 -3.57917,-10.73264 -2.38074,-0.33978 -9.3843,-0.59743 -10.50954,-0.22218 -0.78841,0.26292 0.13279,0.85265 -0.2234,1.56528"
       id="path6814"
       inkscape:connector-curvature="0"
       inkscape:export-filename="/home/substack/projects/heatwave/static/img/upboat.png"
       inkscape:export-xdpi="90"
       inkscape:export-ydpi="90" />
    <path
       style="fill:#6c5353;fill-opacity:1;stroke:#000000;stroke-width:2;stroke-linecap:butt;stroke-linejoin:miter;stroke-miterlimit:4;stroke-opacity:1;stroke-dasharray:none"
       d="m 233.18097,293.572 c 7.25243,5.32881 30.24222,22.41257 43.08938,30.58277 7.44829,4.73677 21.36742,-0.72099 28.74432,3.97037 2.60342,1.65566 11.80093,2.71653 14.92083,1.53913 2.50799,-0.94647 18.19963,3.07725 24.97065,1.5705 7.90557,-1.75921 22.44211,4.53747 27.06271,0.78099 13.16169,-10.70025 24.71132,-28.02323 34.66426,-43.67366 1.4029,-2.20597 9.40742,-13.54658 10.81032,-15.75255 5.33723,-8.39249 16.6032,-25.10752 17.22511,-31.13658 11.81156,-5.52649 37.0849,-8.45377 39.80206,13.28815 1.4894,11.91777 -9.78162,24.71026 -14.73847,35.67601 -4.88095,10.79788 -17.51341,41.89861 -26.19314,48.9551 -3.19383,2.59653 -8.70294,6.1845 -11.07591,9.91585 -3.6053,5.66912 -14.59228,20.80286 -20.47022,23.02109 -5.81249,2.19353 -13.60046,6.50045 -17.04424,9.3002 -3.04994,2.47956 -14.43201,-0.91042 -18.33654,-0.45764 -14.43989,1.6745 -38.09914,3.99419 -50.32007,-3.77776 -2.9853,-1.8985 -13.77536,-1.90012 -24.92083,-1.53913 -3.38959,0.10979 -19.33847,-0.8458 -24.69185,-7.43064 -0.85642,-1.05342 -4.77724,0.14183 -5.96833,-0.61565 -11.01523,-7.00517 -24.29548,-12.80085 -35.16296,-19.71207 -2.05432,-1.30645 -8.46752,-1.44786 -9.742,-3.01553 -0.89212,-1.09733 1.50776,-4.871 0.61565,-5.96833 -6.14005,-7.55248 6.2728,-40.96446 16.75927,-45.52062 z"
       id="path6275"
       inkscape:connector-curvature="0"
       sodipodi:nodetypes="cssssssscssssssssssssssc"
       inkscape:export-filename="/home/substack/projects/heatwave/static/img/upboat.png"
       inkscape:export-xdpi="90"
       inkscape:export-ydpi="90" />
    <path
       style="fill:#594444;stroke:none;stroke-width:1px;stroke-linecap:butt;stroke-linejoin:miter;stroke-opacity:1;fill-opacity:1"
       d="m 173.94827,515.66814 c -1.03143,1.92677 -1.87105,8.382 -0.35356,9.89949 0.36932,0.36932 -0.64317,6.49183 0,7.77817 0.57465,1.1493 0.14623,2.76732 0.70711,3.88909 1.19664,2.39328 1.53295,5.54078 2.82843,8.13173 0.29603,0.59207 0,2.22267 0,2.47487 0,0.0582 4.10398,12.94282 4.24264,13.08148 0.68767,0.68767 -1.54174,10.35154 -0.35355,12.72792 0.85707,1.71416 4.24264,8.10702 4.24264,9.8995 0,2.16864 -1.78809,23.3142 0.35355,25.45584 2.97062,2.97062 8.19523,5.72036 10.96016,8.48528 2.89061,2.89062 20.04049,6.47601 23.68807,2.82843 0.18634,-0.18634 0.35356,-0.44358 0.35356,-0.70711 0,-0.0688 -1.66431,-0.60365 -1.76777,-0.7071 -0.95931,-0.95932 -1.07537,-1.77513 -2.47487,-2.47488 -0.56569,-0.28284 -1.55564,0.28284 -2.12133,0 -0.6773,-0.33865 -3.42037,-3.18198 -2.47487,-3.18198 0.84512,0 6.31689,-6.34042 7.77818,-7.07107 0.39406,-0.19703 1.86104,-2.73515 1.41421,-3.18198 -0.78775,-0.78774 -3.87902,-0.17174 -4.94975,-0.7071 -1.94429,-0.97215 -6.28441,-2.31577 -7.42462,-4.5962 -0.10921,-0.21842 -0.2225,-1.28316 -0.35355,-1.41421 -0.21238,-0.21238 -0.68584,-1.1032 -0.35356,-1.76777 1.51521,-3.03041 4.55172,-5.25882 6.01041,-6.71751 0.0675,-0.0675 1.06066,-0.41758 1.06066,-0.70711 0,-0.49632 -2.75078,-1.83385 -3.18198,-2.12132 -1.28902,-0.85935 -3.18198,-4.57378 -3.18198,-6.01041 0,-3.27122 1.49213,-4.9887 3.53553,-6.01041 0.69479,-0.34739 1.27531,-0.56819 1.76777,-1.06066 0.0833,-0.0833 0,-0.4714 0,-0.35355 0,0.16667 -0.2357,-0.2357 -0.35355,-0.35355 -0.48584,-0.48584 -1.82476,-0.73561 -2.47488,-1.06066 -0.76787,-0.38394 -1.99909,-0.43067 -2.82842,-0.70711 -1.71384,-0.57128 -5.52896,-4.85199 -4.5962,-6.71751 3.26613,-6.53226 4.56032,-4.56032 8.13173,-8.13173 0.85606,-0.85606 0.88282,-2.82629 1.41421,-3.88909 0.80722,-1.61443 2.48237,-2.84341 3.18199,-4.24264 0.58585,-1.17171 -2.95647,-4.46816 -1.41422,-6.01041 0.055,-0.055 2.88494,-1.71125 2.47488,-2.12132 -1.48068,-1.48067 -6.78093,1.3508 -8.13173,0 -1.211,-1.21099 2.2078,-3.44905 1.06066,-4.59619 -1.93846,-1.93846 -4.64033,-1.96661 -7.07107,-3.18198 -1.6889,-0.84445 -2.9662,-2.61265 -3.88909,-3.53554 -1.99537,-1.99537 -5.8667,-3.36978 -8.48528,-4.24264 -3.10651,-1.0355 -5.66082,-3.18396 -8.48528,-4.59619 -2.09885,-1.04943 -3.94002,-1.43968 -6.01041,-2.47487 -0.73786,-0.36894 -1.64991,0 -2.47487,0 z"
       id="path7485"
       inkscape:connector-curvature="0"
       inkscape:export-filename="/home/substack/projects/heatwave/static/img/upboat.png"
       inkscape:export-xdpi="90"
       inkscape:export-ydpi="90" />
    <path
       style="fill:#ac9393;stroke:#000000;stroke-width:2;stroke-linecap:butt;stroke-linejoin:miter;stroke-opacity:1;fill-opacity:1;stroke-miterlimit:4;stroke-dasharray:none"
       d="m 107,348.36218 c 1.04563,10.02298 14.84209,45.52627 22,67 3.45994,10.37982 7.32423,20.64847 12,30 2.29389,4.58779 0.38225,12.14676 2,17 1.44239,4.32716 4,10.24491 4,15 0,3.4208 3.721,21.72101 5,23 1.08318,1.08318 7.28427,2.14214 9,3 4.08685,2.04343 7.18875,8.18876 10,11 10.25548,10.25548 26.85903,19 35,19 8.95111,0 12.83713,-12.67425 17,-21 0.94897,-1.89793 0.47674,-4.90696 1,-7 1.77207,-7.08829 3,-13.61651 3,-21 0,-1.02941 1.7451,-1.2549 1,-2 -4.55502,-4.55502 -5.4888,-19.46638 -8,-27 -3.40932,-10.22796 -10.95887,-20.9383 -17,-30 -7.90251,-11.85376 -31.7767,-58.88835 -40,-63 -7.65561,-3.8278 -15.47057,-7.23528 -23,-11 -9.00915,-4.50457 -22.44695,-11.44244 -33,-3 z"
       id="path6271"
       inkscape:connector-curvature="0"
       inkscape:export-filename="/home/substack/projects/heatwave/static/img/upboat.png"
       inkscape:export-xdpi="90"
       inkscape:export-ydpi="90" />
    <path
       style="fill:#594444;stroke:none;stroke-width:1px;stroke-linecap:butt;stroke-linejoin:miter;stroke-opacity:1;fill-opacity:1"
       d="m 284,340.86218 c 2.24248,-1.50482 10.37246,-5.12754 13,-2.5 2.0859,2.08591 -3.08594,5.95703 0,7.5 1.92865,0.96433 7.43793,-3.56207 9.5,-1.5 2.33427,2.33427 5.61076,4.61076 8,7 1.24072,1.24072 12.65575,-8.17212 18,-5.5 3.28951,1.64476 3.87337,6.87337 6.5,9.5 1.11974,1.11974 20.813,-5.3435 21.5,-5 1.47301,0.73651 5.48192,9.51808 6.5,8.5 2.50416,-2.50415 6.13826,-3.54608 10.5,-5 0.71549,-0.2385 4.03666,-0.0367 4.5,-0.5 2.35001,-2.35001 0.25483,-5.62741 4,-7.5 1.76012,-0.88006 10.79593,3.20407 12,2 0.41667,-0.41666 -0.41667,-2.08333 0,-2.5 1.81096,-1.81096 4.56725,-10.56725 5,-11 1.10083,-1.10082 6.19737,3.69737 6.5,4 1.14973,1.14973 4.22129,-1.11064 5,-1.5 2.55832,-1.27916 5.64723,-2.14723 7.5,-4 1.03749,-1.03748 5.0343,1.96571 6.5,0.5 0.41208,-0.41207 0.91589,-1.20794 1.5,-1.5 0.7085,-0.35425 2.54851,-3.95149 4,-2.5 0.8024,0.8024 -1.26714,6.13357 -2,6.5 -4.91567,2.45784 -6.55988,9.52994 -8.5,10.5 -0.63126,0.31563 -2.52,-0.47999 -3,0 -3.34423,3.34423 -8.2583,1.7583 -10.5,4 -2.1852,2.18521 -1.22111,5.94221 -2.5,8.5 -1.07741,2.15481 -10.12782,7.81391 -12.5,9 -2.09792,1.04896 -2.6587,4.15871 -4,5.5 -1.62441,1.62442 -6.87771,0.93886 -9,2 -7.07596,3.53798 -18.18549,6.40726 -26,2.5 -1.71482,-0.85741 -7.64023,-0.57011 -10.5,-2 -2.79395,-1.39697 -5.85773,2.32114 -7.5,1.5 -2.90039,-1.45019 -5.93584,-3.47861 -9,-4.5 -5.64754,-1.88251 -10.95847,1.02077 -16,-1.5 -2.90382,-1.45191 -16.06317,1.43684 -16.5,1 -2.38384,-2.38384 -2.80657,-8.90875 -5.5,-12.5 -1.72161,-2.29548 -3.28002,-4.70669 -5,-7 -1.53441,-2.04588 -9.31164,-6.87672 -8,-9.5 1.38785,-2.77569 3.33221,-1.1661 6,-2.5 z"
       id="path7419"
       inkscape:connector-curvature="0"
       inkscape:export-filename="/home/substack/projects/heatwave/static/img/upboat.png"
       inkscape:export-xdpi="90"
       inkscape:export-ydpi="90" />
    <path
       style="fill:none;stroke:#000000;stroke-width:1px;stroke-linecap:butt;stroke-linejoin:miter;stroke-opacity:1"
       d="m 310.06632,329.69905 c 0.21668,1.56961 1.32651,2.5653 1.76777,3.88909 0.42962,1.28886 0.0226,2.91864 0.35355,4.24264 1.97735,7.90937 0.33889,16.9999 -2.82842,23.33452 -1.08432,2.16864 -0.7531,3.93508 -1.06066,4.24264"
       id="path7024"
       inkscape:connector-curvature="0"
       inkscape:export-filename="/home/substack/projects/heatwave/static/img/upboat.png"
       inkscape:export-xdpi="90"
       inkscape:export-ydpi="90" />
    <path
       style="fill:#ccb3b3;stroke:#000000;stroke-width:2;stroke-linecap:butt;stroke-linejoin:miter;stroke-opacity:1;stroke-miterlimit:4;stroke-dasharray:none;fill-opacity:1"
       d="m 290.3789,330.89256 c 2.37515,0.81715 11.76336,15.06763 14.64281,25.11152 2.16279,7.54412 17.96292,23.67316 17.59191,25.66173 -0.95576,5.1228 -10.24465,58.71984 -13.8874,63.53062 -4.07396,5.38027 -13.14306,41.78531 -12.98501,42.33663 -6.24667,11.04916 -34.99338,12.08129 -41.74121,18.82912 -6.77574,6.77574 -18.62527,9.62527 -26,17 -0.501,0.501 -3.34442,0.34442 -4,1 -2.95835,2.95835 -9.15851,4.15852 -12,7 -0.52705,0.52705 -2,1.74536 -2,1 0,-25.51181 -6.33347,-42.66693 -18,-66 -1.20425,-2.4085 -0.0114,-9.01137 -2,-11 -5.78799,-5.78799 -7.26475,-33.26475 -13,-39 -0.88821,-0.88821 0.58029,-22.58029 1,-23 4.47455,-4.47454 11.10092,-13.40061 18,-18 8.51326,-5.6755 16.90851,-10.60567 25,-16 3.00852,-2.00568 3.72467,-4.44934 5,-7 1.3126,-2.62521 4.34973,-4.34972 6,-6 8.45544,-8.45544 10.79546,-14 26,-14 6.67833,0 18.42788,3 24,3 7.19492,0 8.69536,-8.20273 8,0"
       id="path6256"
       inkscape:connector-curvature="0"
       inkscape:export-filename="/home/substack/projects/heatwave/static/img/upboat.png"
       inkscape:export-xdpi="90"
       inkscape:export-ydpi="90" />
    <path
       style="fill:#ac9393;fill-opacity:1;stroke:#000000;stroke-width:2;stroke-linecap:butt;stroke-linejoin:miter;stroke-miterlimit:4;stroke-opacity:1;stroke-dasharray:none"
       d="m 274.4126,404.93764 c -0.99837,-3.62305 0.0247,-3.48277 0.24234,-5.69573 0.63059,-6.4126 -0.27758,-10.10241 0.19569,-14.91514 0.41535,-4.22377 8.11023,-4.4093 9.68364,-4.76731 0.36469,-0.083 3.99087,-2.74304 4.27691,-1.48594 0.71167,3.12771 1.65269,5.00977 2.37341,8.17722 0.66196,2.90923 -3.36164,13.75835 0.62465,16.26683"
       id="path6891"
       inkscape:connector-curvature="0"
       inkscape:export-filename="/home/substack/projects/heatwave/static/img/upboat.png"
       inkscape:export-xdpi="90"
       inkscape:export-ydpi="90" />
    <path
       style="fill:#ac9393;stroke:#000000;stroke-width:2;stroke-linecap:butt;stroke-linejoin:miter;stroke-opacity:1;stroke-miterlimit:4;stroke-dasharray:none;fill-opacity:1"
       d="m 187,288.36218 c -1.73014,-4.4308 -25.42493,14 -32,14 -3.71142,0 -10.40572,4 -10,4 5.30267,0 11.41896,4.70948 16,7 10.83026,5.41513 24.20933,9.20933 32,17 1.24697,1.24697 5.31181,1.31182 7,3 3.38025,3.38025 20.54702,20.77351 23,22 1.17433,0.58717 2.28227,-0.28227 3,-1 3.81915,-3.81915 22.2308,-8.7436 29,-11 6.46108,-2.15369 33.81151,-7.81151 37,-11 0.28432,-0.28432 -19.81536,-20.60512 -24,-22 -11.70589,-3.90196 -21.22401,-11.112 -31,-16 -1.88968,-0.94484 -4.11832,-0.37277 -6,-1 -16.46992,-5.48997 -30.30351,-7.28275 -44,-5 z"
       id="path6200"
       inkscape:connector-curvature="0"
       inkscape:export-filename="/home/substack/projects/heatwave/static/img/upboat.png"
       inkscape:export-xdpi="90"
       inkscape:export-ydpi="90" />
    <path
       inkscape:connector-curvature="0"
       id="path7398"
       d="m 146,306.36218 c -2.81916,3.46366 -8.206,4.206 -11,7 -4.23465,4.23465 -29,32.2646 -29,34 0,1.0541 2.25464,0.25465 3,1 1.10656,1.10656 3.03367,3.01684 5,4 2.78235,1.39118 4.40099,5.26733 7,7 12.54126,8.36084 25.7933,22.39665 37,28 6.99641,3.49821 12.40349,11.80698 15,17 1.66555,3.3311 5.43065,7 5,7 -0.55572,0 3.78737,-4.57474 4,-5 2.73471,-5.46941 6.82599,-9.82599 12,-15 10.39573,-10.39572 16.19321,-21.19321 24,-29 3.4239,-3.4239 7.56466,-5.12932 10,-10 0.21082,-0.42163 1.4714,-1 1,-1 -5.98618,0 -18.64247,-16.64246 -25,-23 -3.53113,-3.53113 -8.68102,-3.84051 -13,-6 -17.1919,-8.59595 -23.54738,-11.70947 -45,-16 z"
       style="fill:#ab9292;stroke:#000000;stroke-width:2;stroke-linecap:butt;stroke-linejoin:miter;stroke-opacity:1;stroke-miterlimit:4;stroke-dasharray:none;fill-opacity:1"
       inkscape:export-filename="/home/substack/projects/heatwave/static/img/upboat.png"
       inkscape:export-xdpi="90"
       inkscape:export-ydpi="90" />
    <path
       style="fill:#9c7f7f;fill-opacity:1;stroke:none"
       d="m 164.5,398.36218 c -1.55149,0.51716 -5.59514,-1.80972 -6.5,0 -1.39038,2.78076 3,9.41187 3,11 0,0.15327 -5.81447,1.12895 -6.5,2.5 -2.59411,5.18822 -2.18258,15.27248 4.5,17.5 1.26915,0.42305 3.54749,1.04749 4.5,2 0.92882,0.92882 -2.99771,3.16515 -3.5,3.5 -2.7418,1.82787 -6.24489,6.01022 -4.5,9.5 1.57624,3.15247 6.47411,2.47411 8,4 0.35384,0.35385 -4.95115,4.5977 -3,8.5 3.02471,6.04942 3.34339,1.8434 6,4.5 0.64585,0.64585 0.5925,2.685 1,3.5 0.86649,1.73297 2.76788,2.76789 3.5,3.5 0.91667,0.91667 0.0833,3.58334 1,4.5 2.92154,2.92154 3.56689,5.13378 5.5,9 -5.91976,8.87266 4.78566,15.28566 9,19.5 0.43329,0.43329 -3.95674,5.12978 -3,8 0.84035,2.52105 3.78967,5.28967 5.5,7 0.32779,0.32779 1.7495,0.2495 2,0.5 1.94221,1.94222 -1.38999,5.11002 0.5,7 1.00133,1.00133 1.68301,1.30501 3,3.5 -1.35702,0.34878 -5.12063,-2.31031 -10.5,-5 -2.39587,-1.19793 -4.22732,-5.22732 -6,-7 -3.74425,-3.74425 -8.37209,-5.37209 -12,-9 -1.35059,-1.35059 -2.50819,-4.01638 -3.5,-6 -0.20815,-0.41629 0.31716,-1.68284 0,-2 -5.54139,-5.54139 -5.34305,-16.1861 -9,-23.5 -0.71767,-1.43533 -0.27568,-3.55135 -1,-5 -1.79377,-3.58753 -3.70673,-7.6202 -5,-11.5 -0.92779,-2.78338 -0.0854,-6.25628 -1,-9 -2.11717,-6.3515 -3.53607,-13.57213 -6.5,-19.5 -0.31563,-0.63126 0.48,-2.52 0,-3 -2.63059,-2.63059 -1.79487,-10.08973 -3.5,-13.5 -2.14703,-4.29405 -3.40821,-8.90821 -6.5,-12 -1.24373,-1.24373 -0.33936,-4.83936 -1.5,-6 -2.54163,-2.54163 -3.4254,-6.4254 -5,-8 -0.91667,-0.91666 -2.58333,-1.08333 -3.5,-2 -1.14172,-1.14172 -1.57872,-4.07871 -2.5,-5 -1.02371,-1.02371 -4.06478,-17.56477 -5,-18.5 -0.30667,-0.30667 -2.5,-3.34836 -2.5,-3.5 0,-0.54578 1.25991,-2.74009 1,-3 -0.93752,-0.93752 -1.50014,-1.99971 -1,-3 -0.20102,-1.48449 -2.13395,-3.86605 -1.5,-4.5 1.44997,-1.44996 1.78218,-4.28218 3.5,-6 0.33566,-0.33566 0.66434,0.33567 1,0 2.02646,-2.02646 3.0862,-4.58619 5,-6.5 2.08474,-2.08473 2.5053,-4.50529 4.5,-6.5 2.69495,-2.69495 6.64879,-4.64879 9.5,-7.5 4.25589,-4.25588 8.99934,-8.99934 13,-13 2.29999,-2.29999 9.85353,-2.35353 12,-4.5 0.39908,-0.39908 1.97543,0.26229 2.5,0 5.00984,-2.50492 10.76254,-4.63127 15.5,-7 1.41914,-0.70957 17.05829,-8.94171 18.5,-7.5 1.85159,1.85159 0.1903,8.07089 1,10.5 1.5167,4.55011 4.85306,7.35306 8.5,11 2.93113,2.93113 4.02848,4.76424 7.5,6.5 0.54502,0.27251 3.84424,1.15577 3.5,1.5 -3.32873,2.66299 -5.39284,4.19642 -9,6 -0.94364,0.47182 -7,1.26916 -7,2 0,1.11535 2.79015,2.79015 3.5,3.5 0.84053,0.84053 2.38816,4.38816 4,6 0.66611,0.66612 0.1982,3.6982 1,4.5 0.65597,0.65597 3.27817,1.55635 4,3 0.42928,0.85857 0.81044,2.18956 0,3 -2.5666,2.56661 -7.82366,3.41183 -11,5 -0.50753,0.25376 -4.12071,-1.5 -5.5,-1.5 -5.0418,0 -19.36853,1.43427 -23.5,3.5 -4.14067,2.07033 -13.31645,7.68355 -8,13 0.579,0.579 1.20053,2.60027 2,3 0.65588,0.32794 7.21089,3.28911 6,4.5 -1.63085,1.63085 -18.06719,11.43281 -15.5,14 2.83698,2.83698 9.28907,5.35546 9.5,10 z"
       id="path7396"
       inkscape:connector-curvature="0"
       sodipodi:nodetypes="cssssscssssssccssssscsssssssssssssssssssscsscsssssssssssc"
       inkscape:export-filename="/home/substack/projects/heatwave/static/img/upboat.png"
       inkscape:export-xdpi="90"
       inkscape:export-ydpi="90" />
    <path
       style="fill:none;stroke:#000000;stroke-width:2;stroke-linecap:butt;stroke-linejoin:miter;stroke-opacity:1;stroke-miterlimit:4;stroke-dasharray:none;fill-opacity:1"
       d="m 146,306.36218 c -2.81916,3.46366 -8.206,4.206 -11,7 -4.23465,4.23465 -29,32.2646 -29,34 0,1.0541 2.25464,0.25465 3,1 1.10656,1.10656 3.03367,3.01684 5,4 2.78235,1.39118 4.40099,5.26733 7,7 12.54126,8.36084 25.7933,22.39665 37,28 6.99641,3.49821 12.40349,11.80698 15,17 1.66555,3.3311 5.43065,7 5,7 -0.55572,0 3.78737,-4.57474 4,-5 2.73471,-5.46941 6.82599,-9.82599 12,-15 10.39573,-10.39572 16.19321,-21.19321 24,-29 3.4239,-3.4239 7.56466,-5.12932 10,-10 0.21082,-0.42163 1.4714,-1 1,-1 -5.98618,0 -18.64247,-16.64246 -25,-23 -3.53113,-3.53113 -8.68102,-3.84051 -13,-6 -17.1919,-8.59595 -23.54738,-11.70947 -45,-16 z"
       id="path6241"
       inkscape:connector-curvature="0"
       inkscape:export-filename="/home/substack/projects/heatwave/static/img/upboat.png"
       inkscape:export-xdpi="90"
       inkscape:export-ydpi="90" />
    <path
       style="fill:#6c5353;stroke:#000000;stroke-width:2;stroke-linecap:butt;stroke-linejoin:miter;stroke-miterlimit:4;stroke-opacity:1;stroke-dasharray:none;fill-opacity:1"
       d="m 184,294.36218 c 2.64361,-5.28722 8.16144,-17.16144 11,-20 1.33333,-1.33333 -0.33333,-5.66666 1,-7 6.0573,-6.05729 5.17097,-52.15252 6,-52 17.34595,5.99921 52.92123,14.35959 72,8 3.3,-1.1 7.7,1.1 11,0 4.87024,-1.62341 13.72136,-4 19,-4 2.46182,0 15.63821,-4.36178 16,-4 2.27378,2.27378 -2.25868,18.77605 -3,21 -1.63612,4.90835 -0.37451,11.12353 -2,16 -3.2714,9.81419 -4.30824,19.61648 -9,29 -3.18515,6.3703 -19.76754,24.76754 -23,28 -3.33673,3.33674 -5.97873,2.95746 -8,7 -6.35447,3.81268 -9.17246,7.17246 -13,11 -2.94488,2.94488 -12.07647,2.53824 -17,5 -2.4,1.2 -6.6,-1.2 -9,0 -15.52795,7.76398 -61.64007,-20.00403 -52,-38 z"
       id="path6185"
       inkscape:connector-curvature="0"
       inkscape:export-filename="/home/substack/projects/heatwave/static/img/upboat.png"
       inkscape:export-xdpi="90"
       inkscape:export-ydpi="90" />
    <path
       style="fill:none;stroke:#000000;stroke-width:1;stroke-linecap:butt;stroke-linejoin:miter;stroke-opacity:1;stroke-miterlimit:4;stroke-dasharray:none"
       d="m 304,283.36218 c -12.71305,4.57096 -48.0465,26.47675 -75,13 -3.572,-1.786 -7.83599,-1.83599 -10,-4 -3.15544,-3.15544 -7.37757,-5.37757 -10,-8 -4.63887,-4.63887 -5.81986,-15.63973 -4,-12"
       id="path6944"
       inkscape:connector-curvature="0"
       inkscape:export-filename="/home/substack/projects/heatwave/static/img/upboat.png"
       inkscape:export-xdpi="90"
       inkscape:export-ydpi="90" />
    <path
       style="fill:#594444;stroke:none;stroke-width:1px;stroke-linecap:butt;stroke-linejoin:miter;stroke-opacity:1;fill-opacity:1"
       d="m 208.95005,325.45641 c 0.76989,0.58902 -5.13959,-0.89695 -6.71751,-2.47487 -0.70635,-0.70635 -0.85234,-1.55945 -1.41421,-2.12132 -0.69144,-0.69144 -2.13699,-0.72278 -2.82843,-1.41422 -1.31516,-1.31516 -2.46604,-2.46603 -3.53554,-3.53553 -0.62948,-0.62949 -0.56903,-1.6297 -1.06066,-2.12132 -2.53358,-2.53358 -5.79698,-5.79699 -8.13172,-8.13173 -0.65253,-0.65253 -1.09488,-2.15554 -1.76777,-2.82843 -0.65215,-0.65215 1.01426,-5.61045 1.41421,-6.0104 1.434,-1.434 2.66016,-7.25635 3.88909,-8.48529 4.28907,-4.28906 6.20636,-11.43085 9.8995,-16.97056 1.26465,-1.89698 2.7834,-4.19762 4.24264,-5.65685 0.24016,-0.24017 3.31547,1.48096 3.88908,1.76776 1.04332,0.52166 3.73494,-0.15414 4.5962,0.70711 1.10288,1.10288 2.98194,1.92129 4.24264,3.18198 2.84188,2.84188 5.34928,7.09406 9.54594,9.19239 0.96826,0.48413 2.48091,0.53335 3.53553,1.06066 3.79435,1.89717 7.68687,4.80146 11.31371,6.01041 0.67918,0.22639 1.49151,0.0387 2.12132,0.35355 1.43697,0.71849 2.44535,2.10656 3.88909,2.82843 0.8713,0.43565 2.03085,0.26308 2.82843,1.06066 0.76671,0.76671 1.07145,2.13211 2.12132,3.18198 1.03968,1.03968 4.03692,1.20849 4.94974,2.12132 0.81007,0.81007 1.90422,1.55066 2.82843,2.47487 1.20748,1.20748 -3.37366,1.95945 -3.53553,2.12132 -1.22914,1.22914 -3.43576,1.36433 -4.94975,2.12132 -2.03321,1.01661 -2.47244,3.53311 -3.88909,4.94975 -0.3188,0.31881 -1.76776,0.20615 -1.76776,1.06066 0,2.19112 6.36396,3.76105 6.36396,3.88909 0,0.74536 -1.59428,0.18006 -2.12132,0.70711 -0.82358,0.82357 -3.18198,1.67599 -3.18198,3.88908 0,3.10823 4.5072,5.74585 4.24264,6.01041 -0.49912,0.49911 -8.73033,1.65926 -9.8995,2.82843 -0.6081,0.6081 -2.0263,-1.15568 -2.82842,-0.35356 -1.14911,1.14911 0.43146,2.39696 -0.70711,3.53554 -0.871,0.871 -2.85852,-0.16173 -3.88909,0.35355 -3.24248,1.62124 -8.74301,1.63891 -12.72792,-0.35355 -0.94281,-0.47141 -2.59273,0.4714 -3.53553,0 -3.34871,-1.67435 -5.39371,-1.56489 -7.42463,-4.94975 z"
       id="path7483"
       inkscape:connector-curvature="0"
       inkscape:export-filename="/home/substack/projects/heatwave/static/img/upboat.png"
       inkscape:export-xdpi="90"
       inkscape:export-ydpi="90" />
    <path
       style="fill:#ac9393;stroke:#000000;stroke-width:2;stroke-linecap:butt;stroke-linejoin:miter;stroke-opacity:1;stroke-miterlimit:4;stroke-dasharray:none"
       d="m 151.56571,156.17987 c 0.54768,2.02939 1.14059,33.20366 -0.82757,35.17182 -0.68965,0.68964 0.27585,3.03443 -0.41379,3.72408 -1.07907,1.07906 0.36446,6.30544 -0.41379,7.86194 -0.26098,0.52197 1.24136,12.85601 1.24136,14.8963 0,5.12186 0.41379,10.72552 0.41379,15.72387 0,2.75858 0,5.51715 0,8.27573 0,1.58993 -0.41379,2.96117 -0.41379,2.8965 0,-0.33066 2.26737,-0.72836 2.89651,-0.41379 1.62364,0.81182 16.2006,11.05974 16.55144,11.58601 1.35214,2.02821 6.25852,3.86632 8.27572,5.37922 8.3125,6.23438 17.41828,10.95822 26.48231,16.13767 8.34188,4.76678 16.63373,9.56644 24.82718,14.48251 2.20755,1.32453 5.3615,1.74531 7.44815,3.31029 1.15431,0.86573 14.59118,9.10329 14.8963,9.10329 1.68117,0 7.81332,-8.04451 9.93087,-9.10329 2.67171,-1.33586 5.47419,-3.01725 8.27572,-4.13786 2.31061,-0.92425 5.32815,-1.42272 7.44815,-2.48272 2.92329,-1.46164 6.59031,-3.88353 9.93087,-4.55164 5.96572,-1.19315 11.97929,-4.7483 17.37902,-7.44816 4.71268,-2.35633 10.36441,-3.48766 14.8963,-6.20679 1.45529,-0.87318 3.44462,-0.89474 4.96543,-1.65515 7.97435,-3.98716 17.26472,-6.22096 24.82718,-10.75844 1.96331,-1.17798 4.64343,-1.29643 6.62057,-2.48271 3.72076,-2.23246 8.20122,-4.32613 12.41359,-5.37922 1.40585,-0.35146 4.39541,-1.08513 5.37922,-2.06893 1.06045,-1.06045 2.52301,-1.65515 2.48272,-1.65515 -1.43873,0 -0.82758,-4.38507 -0.82758,-5.793 0,-5.57882 0.4844,-20.33626 -0.41378,-24.82717 -1.2073,-6.03651 1.05702,-24.68794 2.8965,-30.2064 0.85782,-2.57347 -0.29756,-8.09439 0.82757,-10.34464 0.93797,-1.87595 1.65515,-5.74877 1.65515,-7.86194 0,-1.59694 2.06857,-7.03473 1.24136,-7.86194 -0.28484,-0.28484 -3.29295,0.82757 -4.96544,0.82757 -12.4275,0 -25.48168,0 -38.48211,0 -15.07046,0 -30.53276,2.88679 -45.51648,4.55165 -8.90733,0.9897 -17.36925,4.75691 -26.06853,6.20679 -4.14425,0.69071 -8.64778,1.65515 -12.82737,1.65515 -0.311,0 -0.7747,0.88043 -1.24136,0.41378 -5.34231,-5.34231 -16.98381,-6.03476 -24.82717,-8.27572 -8.01361,-2.28961 -15.32353,-6.3136 -23.17203,-8.27573 -5.66119,-1.41529 -11.65129,-1.46456 -17.37901,-2.8965 -3.01602,-0.754 -10.22802,0.56236 -12.41359,1.65514 -2.41496,1.20749 -18.98479,-1.29073 -20.27552,0 -0.82392,0.82393 -1.98183,0.82758 -3.72407,0.82758 z"
       id="path5650"
       inkscape:connector-curvature="0"
       inkscape:export-filename="/home/substack/projects/heatwave/static/img/upboat.png"
       inkscape:export-xdpi="90"
       inkscape:export-ydpi="90" />
    <path
       style="fill:#ccb3b3;stroke:#000000;stroke-width:2;stroke-linecap:butt;stroke-linejoin:miter;stroke-opacity:1;stroke-miterlimit:4;stroke-dasharray:none;fill-opacity:1"
       d="m 151.07465,156.3767 c 2.89174,0.18658 19.77182,3.85975 29.25911,7.02218 6.50196,2.16732 13.00794,6.81491 19.89618,8.19255 9.14433,1.82887 19.68566,5.74656 28.08874,9.9481 6.6442,3.3221 13.63195,5.32423 20.48137,7.60737 4.64694,1.54897 8.25256,3.51109 8.19255,3.51109 -0.39012,0 0.19506,-0.58519 0.58518,-0.58519 1.58272,0 4.43596,-2.42565 6.437,-2.9259 4.54327,-1.13582 9.39704,-1.59811 14.04437,-2.92591 6.0734,-1.73526 12.52845,-2.91078 18.72582,-4.68146 9.32333,-2.66381 18.87421,-7.37777 28.67392,-8.77773 11.07007,-1.58144 21.6869,-6.60922 32.77019,-8.19255 9.2506,-1.28474 17.81312,-4.05598 25.74802,-4.09627 0.64543,0 -2.38383,-0.40449 -4.68146,-1.17037 -1.12563,-0.3752 -2.44985,-1.1158 -3.51109,-0.58518 -1.83469,-0.6714 -3.07952,-1.13778 -5.12035,-1.17037 -1.30394,-0.65197 -3.98596,-0.94514 -5.41293,-1.17036 -7.41555,-1.17036 -27.17295,-6.13174 -35.11092,-8.77773 -7.70186,-2.56728 -15.95594,-3.2575 -23.99246,-5.26664 -4.82692,-1.20673 -9.20989,-2.88765 -14.04437,-4.09627 -5.24157,-1.31039 -11.04863,-0.86614 -16.3851,-1.75555 -5.22321,-0.87053 -13.99594,-4.12048 -15.21473,-3.51109 -3.21115,1.60558 -7.6376,1.18044 -11.11846,2.34073 -2.90673,0.96891 -4.84506,2.37345 -7.60736,2.92591 -10.83844,2.16768 -22.09833,2.29453 -32.77019,5.85182 -3.39312,1.13103 -7.04271,1.17378 -10.53329,1.75554 -6.63052,1.1051 -12.73321,3.58516 -19.31099,4.68146 -9.54114,1.59019 -20.07677,0.98421 -28.08875,5.85182 z"
       id="path5648"
       inkscape:connector-curvature="0"
       sodipodi:nodetypes="cssssssssssccsccsssssssssssc"
       inkscape:export-filename="/home/substack/projects/heatwave/static/img/upboat.png"
       inkscape:export-xdpi="90"
       inkscape:export-ydpi="90" />
    <path
       style="fill:none;stroke:#000000;stroke-width:2;stroke-linecap:butt;stroke-linejoin:miter;stroke-opacity:1;stroke-miterlimit:4;stroke-dasharray:none"
       d="m 252.11574,303.07395 c 0.73925,-8.44102 1.24136,-24.72561 1.24136,-37.65454 0,-2.53355 1.40719,-7.53027 0.41379,-9.51708 -0.62915,-1.25829 0.96698,-9.79146 0.41378,-10.34465 -0.28994,-0.28994 -0.82757,-2.62227 -0.82757,-3.31029 0,-2.84439 0.62771,-16.56551 1.65515,-18.62038 0.52967,-1.05934 -0.41379,-10.07775 -0.41379,-11.17222 0,-0.92022 0.38643,-1.18664 0.82757,-2.06893 0.0365,-0.073 0,-8.22508 0,-8.27573 0,-0.74277 -0.82757,-1.32616 -0.82757,-2.06893 0,-0.61683 0.55172,-1.10343 0.82757,-1.65514 0.24864,-0.49729 0,-4.65604 0,-5.79301"
       id="path5652"
       inkscape:connector-curvature="0"
       inkscape:export-filename="/home/substack/projects/heatwave/static/img/upboat.png"
       inkscape:export-xdpi="90"
       inkscape:export-ydpi="90" />
    <path
       style="fill:#ffffff;fill-opacity:1;stroke:#000000;stroke-width:2;stroke-linecap:butt;stroke-linejoin:miter;stroke-miterlimit:4;stroke-opacity:1;stroke-dasharray:none"
       d="m 289,209.36218 c -4.34303,-1.88721 -5.93066,3.31022 -14,6 -5.26986,1.75662 -6.02029,9.0203 -9,12 -1.52235,1.52235 -0.86084,3.72169 -2,6 -8.52501,17.05003 24.82459,26.17541 29,22 4.58861,-4.5886 9.94388,-8.94387 15,-14 2.19126,-2.19125 0.72417,-6.44834 2,-9 4.40623,-8.81245 -4.04996,-20.02498 -10,-23 -3.56507,-1.78253 -6.75557,0 -11,0 z"
       id="path6162"
       inkscape:connector-curvature="0"
       inkscape:export-filename="/home/substack/projects/heatwave/static/img/upboat.png"
       inkscape:export-xdpi="90"
       inkscape:export-ydpi="90" />
    <path
       style="fill:#ffffff;fill-opacity:1;stroke:#000000;stroke-width:2;stroke-linecap:butt;stroke-linejoin:miter;stroke-miterlimit:4;stroke-opacity:1;stroke-dasharray:none"
       d="m 343,192.36218 c -10.19039,-1.82545 -20.51656,11.03312 -25,20 -11.88587,23.77173 21.43329,29.78336 37,22 2.94231,-1.47115 9.2015,-1.40299 11,-5 1.64895,-3.2979 7.06918,-13.86163 5,-18 -5.35884,-10.71768 -12.66729,-28.19962 -28,-19 z"
       id="path6164"
       inkscape:connector-curvature="0"
       inkscape:export-filename="/home/substack/projects/heatwave/static/img/upboat.png"
       inkscape:export-xdpi="90"
       inkscape:export-ydpi="90" />
    <path
       style="fill:#4f3c3c;stroke:#000000;stroke-width:2;stroke-linecap:butt;stroke-linejoin:miter;stroke-miterlimit:4;stroke-opacity:1;stroke-dasharray:none;fill-opacity:1"
       d="m 286,209.36218 c -3.28666,-0.70925 -12.94426,7.94426 -17,12 -6.5476,6.5476 11.37769,37.62231 29,20 0.8799,-0.8799 4.34448,-1.34448 5,-2 14.42969,-14.42968 -0.9885,-36.4046 -17,-30 z"
       id="path6166"
       inkscape:connector-curvature="0"
       inkscape:export-filename="/home/substack/projects/heatwave/static/img/upboat.png"
       inkscape:export-xdpi="90"
       inkscape:export-ydpi="90" />
    <path
       style="fill:#4f3c3c;stroke:#000000;stroke-width:2;stroke-linecap:butt;stroke-linejoin:miter;stroke-miterlimit:4;stroke-opacity:1;stroke-dasharray:none;fill-opacity:1"
       d="m 344,192.36218 c -7.86372,1.46142 -11.92143,4.92143 -16,9 -2.8816,2.8816 -4.06714,19.93286 -1,23 2.77918,2.77918 21.00613,6.99388 25,3 3.64259,-3.64259 8.80748,-6.80748 12,-10 1.47499,-1.47499 -0.22575,-6.77425 1,-8 4.7263,-4.7263 -6.08248,-15.08247 -8,-17 -0.10098,-0.10097 -6.61501,-2 -6,-2 2.4267,0 -4.62042,1.52409 -7,2 z"
       id="path6168"
       inkscape:connector-curvature="0"
       inkscape:export-filename="/home/substack/projects/heatwave/static/img/upboat.png"
       inkscape:export-xdpi="90"
       inkscape:export-ydpi="90" />
    <path
       style="fill:#6c5353;stroke:#000000;stroke-width:2;stroke-linecap:butt;stroke-linejoin:miter;stroke-miterlimit:4;stroke-opacity:1;stroke-dasharray:none"
       d="m 300,257.36218 c -2.30932,-0.70487 5.23682,0.23682 9,4 4.32245,4.32246 35,-1.7197 35,-19 -2.76238,11.04951 -30.10991,10.3187 -44,15 z"
       id="path6183"
       inkscape:connector-curvature="0"
       inkscape:export-filename="/home/substack/projects/heatwave/static/img/upboat.png"
       inkscape:export-xdpi="90"
       inkscape:export-ydpi="90" />
    <path
       style="fill:#ac9393;fill-opacity:1;stroke:#000000;stroke-width:2;stroke-linecap:butt;stroke-linejoin:miter;stroke-miterlimit:4;stroke-opacity:1;stroke-dasharray:none"
       d="m 300.35323,402.77479 c 3.12041,-0.20369 5.35185,-16.52915 6.81088,-17.09127 1.58412,-0.61031 9.62571,-4.25828 9.90505,-4.88775 0.19121,-0.43089 -1.12317,-0.13374 -1.29264,-0.57364 -0.36295,-0.94203 -4.62382,-9.4709 -6.10771,-8.89921 -5.2723,2.03125 -9.93088,6.50519 -15.4312,8.62428 -0.68564,0.26416 -3.21262,14.0975 -6.88358,15.51181"
       id="path6906"
       inkscape:connector-curvature="0"
       inkscape:export-filename="/home/substack/projects/heatwave/static/img/upboat.png"
       inkscape:export-xdpi="90"
       inkscape:export-ydpi="90" />
    <path
       style="fill:#ac9393;fill-opacity:1;stroke:#000000;stroke-width:2;stroke-linecap:butt;stroke-linejoin:miter;stroke-miterlimit:4;stroke-opacity:1;stroke-dasharray:none"
       d="m 294.86353,403.23815 c 0.72221,-0.72221 2.96512,-8.43981 5.24329,-11.82088 2.75457,-2.52106 4.21117,-5.77129 6.34787,-7.72685 0.8015,-0.73356 7.22995,-4.03245 9.21228,-4.59716 3.59413,-1.02384 7.80735,-4.15884 11.68774,-3.98708 0.42078,0.0186 2.77114,5.2371 2.68754,7.12581 -0.0716,1.61628 3.83245,5.02207 3.20916,6.6484 -0.46076,1.20221 -11.81653,1.97944 -15.5954,1.81218 -0.23532,-0.0104 -5.39105,8.76825 -7.47955,10.67971 -0.7169,0.65612 0.79868,-2.96759 1.60909,-2.43123 0.8104,0.53635 -1.07273,1.62082 -1.60909,2.43123 -1.4908,2.19806 -1.88465,4.00068 -2.58501,5.40141"
       id="path6908"
       inkscape:connector-curvature="0"
       sodipodi:nodetypes="csscsscssc"
       inkscape:export-filename="/home/substack/projects/heatwave/static/img/upboat.png"
       inkscape:export-xdpi="90"
       inkscape:export-ydpi="90" />
    <path
       style="fill:#ac9393;fill-opacity:1;stroke:#000000;stroke-width:2;stroke-linecap:butt;stroke-linejoin:miter;stroke-miterlimit:4;stroke-opacity:1;stroke-dasharray:none"
       d="m 313.2483,403.94527 c 0.94281,-0.70711 2.12132,-3.06413 2.82842,-2.12132 0.70711,0.94281 -2.82842,3.29983 -2.82842,2.12132 0,-0.67586 12.65291,-16.33847 17.67767,-11.31371 1.38263,1.38263 3.81864,-1.1311 5.65685,0.70711 0.11437,0.11437 4.69895,8.02897 4.24264,8.48528 -1.88562,1.88562 -7.30677,0.2357 -9.19239,2.12132 -2.3609,2.3609 -7.90986,4.37433 -10.6066,7.07107"
       id="path6923"
       inkscape:connector-curvature="0"
       inkscape:export-filename="/home/substack/projects/heatwave/static/img/upboat.png"
       inkscape:export-xdpi="90"
       inkscape:export-ydpi="90" />
    <path
       style="fill:#ac9393;fill-opacity:1;stroke:#000000;stroke-width:2;stroke-linecap:butt;stroke-linejoin:miter;stroke-miterlimit:4;stroke-opacity:1;stroke-dasharray:none"
       d="m 318.90516,413.13765 c 0.94281,-0.2357 1.88562,-0.4714 2.82843,-0.7071 -7.267,2.34482 1.57316,-0.70711 2.12132,-0.70711 2.24135,0 4.00915,-1.18073 4.94975,-2.12132 1.19318,-1.19318 2.82842,-0.22077 2.82842,-0.70711 0,-0.59273 8.2953,1.22423 8.48529,1.41422 1.452,1.452 -0.70711,7.64875 -0.70711,7.77817 -1.49008,-0.0849 -4.52533,-0.85596 -6.36396,0.70711 -1.64326,1.64325 -12.89007,5.65685 -13.43503,5.65685"
       id="path6938"
       inkscape:connector-curvature="0"
       sodipodi:nodetypes="ccssssccc"
       inkscape:export-filename="/home/substack/projects/heatwave/static/img/upboat.png"
       inkscape:export-xdpi="90"
       inkscape:export-ydpi="90" />
    <path
       style="fill:#ac9393;fill-opacity:1;stroke:#000000;stroke-width:2;stroke-linecap:butt;stroke-linejoin:miter;stroke-miterlimit:4;stroke-opacity:1;stroke-dasharray:none"
       d="m 269.87191,406.74262 c 8.4721,-4.74724 17.95502,-10.91755 21.5232,-14.23908 1.5004,-1.39668 7.9086,2.78471 9.40448,2.83827 1.84139,0.0659 5.12378,2.68502 7.40576,2.76673 6.80224,0.24351 13.81536,5.40823 13.52594,13.49254 -0.009,0.24424 4.20577,8.29925 4.15724,9.65491 -0.10822,3.02283 -7.74051,6.58402 -7.83508,9.2256 -0.10252,2.86363 -18.72816,19.84267 -21.2203,19.75346 -1.82034,-0.0652 -8.05432,1.04971 -10.06515,1.64095 -2.58008,0.75861 -4.10064,1.35416 -6.5495,1.26649 -0.24737,-0.009 -2.28058,1.70124 -2.55207,1.40959 -0.24878,-0.26725 0.57984,0.25512 1.03514,-0.96358 0.2833,-0.7583 -0.27339,-1.979 0.10733,-2.99808 0.96836,-2.59202 -0.0741,-10.20529 -0.53425,-13.02745 -0.97074,-5.9542 -4.3371,-18.60656 -4.20972,-22.1648 0.0591,-1.65051 -3.77735,-3.11425 -4.19302,-8.65555 z"
       id="path6863"
       inkscape:connector-curvature="0"
       inkscape:export-filename="/home/substack/projects/heatwave/static/img/upboat.png"
       inkscape:export-xdpi="90"
       inkscape:export-ydpi="90" />
    <path
       style="fill:#6c5353;stroke:#000000;stroke-width:2;stroke-linecap:butt;stroke-linejoin:miter;stroke-opacity:1;stroke-miterlimit:4;stroke-dasharray:none;fill-opacity:1"
       d="m 119.20275,389.68503 c 1.55453,2.16326 -30.980196,42.09779 -24.187515,57.76646 1.778834,4.10325 2.598752,16.67099 4.010555,18.24597 3.04905,3.4015 17.12444,25.4683 21.54729,27.21606 4.36719,1.72578 7.98744,6.89664 12.5442,8.69732 23.45492,9.26862 49.19233,15.05927 74.67008,8.08572 10.96193,-3.0004 34.36746,-11.81439 43.13767,-19.6759 4.59071,-4.11504 8.15462,-10.15851 12.80047,-14.32299 9.26909,-8.30869 20.90017,-13.03699 30.21159,-21.38363 5.8925,-5.23432 11.50498,-8.22426 16.29526,-14.13204 6.87512,-9.58685 3.20225,-19.20411 -0.24299,-23.04759 -7.12267,-7.94596 -34.10826,-16.90618 -44.6602,-7.44756 -7.06896,6.33654 -13.2921,12.86447 -20.06282,18.93366 -2.305,2.06617 -3.05516,5.58743 -5.429,7.71531 -8.79761,7.88607 -20.07244,15.14385 -28.26913,22.49125 -5.35098,4.79654 -16.04571,3.05669 -22.34912,5.78935 -6.19425,2.68532 -19.56718,1.71276 -24.96277,-1.3639 -3.45124,-1.96794 -7.08234,-4.72285 -9.60322,-7.53513 -6.92121,-7.72123 21.23657,-43.04917 7.21283,-58.69391 -11.17775,-12.46977 -24.66921,-18.43519 -42.66318,-7.33845 z"
       id="path6273"
       inkscape:connector-curvature="0"
       sodipodi:nodetypes="csssssssccsssssssssc"
       inkscape:export-filename="/home/substack/projects/heatwave/static/img/upboat.png"
       inkscape:export-xdpi="90"
       inkscape:export-ydpi="90" />
    <path
       style="fill:#ac9393;fill-opacity:1;stroke:#000000;stroke-width:2;stroke-linecap:butt;stroke-linejoin:miter;stroke-miterlimit:4;stroke-opacity:1;stroke-dasharray:none"
       d="m 475.45094,249.23714 c 0.43052,-0.76391 -5.65342,4.94292 -8.94366,4.47335 -2.94048,-0.41967 -11.72416,-0.2703 -13.41656,-1.11621 -6.25561,-3.12675 -14.04503,-3.66626 -19.67828,-6.48193 -0.47144,-0.23564 0.14894,-1.04352 0.2234,-1.56528 0.079,-0.55364 -0.58499,-1.62552 -0.3357,-2.12421 1.20593,-2.41269 -2.48167,-24.01811 -2.01616,-27.27977 0.92829,-6.50435 14.81416,-16.77749 17.5501,-22.25125 0.58071,-1.16181 4.67861,-0.45029 5.47832,-0.33615 1.36022,0.19413 1.4348,4.07105 2.23668,4.47183 1.9811,0.99021 4.98621,1.93328 6.9322,2.90595 2.55923,1.27917 4.39329,4.16852 6.59727,6.37189 2.19074,2.19014 4.91839,4.97377 6.82082,5.92466 1.27425,0.63691 1.47104,3.48283 2.68392,4.69538 0.2993,0.29922 0.82968,2.81341 0.44769,3.57764 -0.29805,0.59633 1.19286,2.08684 0.89479,2.68317 -0.90163,1.80388 3.98281,0.97837 2.90732,3.1301 -1.12277,2.24628 -1.69243,5.0635 -3.01764,7.71484 -0.31086,0.6219 0.0629,1.55161 -0.33509,2.34792 -2.33088,4.66333 -3.0789,7.56159 -5.02942,12.85807 z"
       id="path6745"
       inkscape:connector-curvature="0"
       sodipodi:nodetypes="csssscsssssssssssssc"
       inkscape:export-filename="/home/substack/projects/heatwave/static/img/upboat.png"
       inkscape:export-xdpi="90"
       inkscape:export-ydpi="90" />
    <path
       style="fill:#ac9393;fill-opacity:1;stroke:#000000;stroke-width:2;stroke-linecap:butt;stroke-linejoin:miter;stroke-miterlimit:4;stroke-opacity:1;stroke-dasharray:none"
       d="m 448.1636,195.3516 c -0.87895,-2.44693 9.60888,-13.63259 14.53126,-23.48069 1.11611,-2.23299 4.81298,-4.03756 6.0365,-6.48541 0.46367,-0.92767 2.44598,-6.03343 3.80043,-6.48512 0.4017,-0.13396 11.53615,10.23795 12.52344,10.73143 2.15561,1.07744 -1.29148,4.82051 -2.23515,6.7085 -2.34205,4.68568 -6.59248,13.18944 -8.94185,17.88976 -2.09753,4.19649 -6.54439,7.50155 -8.27197,10.95786 -1.47951,2.96005 -3.62951,7.65598 -6.25959,10.28677"
       id="path6784"
       inkscape:connector-curvature="0"
       inkscape:export-filename="/home/substack/projects/heatwave/static/img/upboat.png"
       inkscape:export-xdpi="90"
       inkscape:export-ydpi="90" />
    <path
       style="fill:#ac9393;fill-opacity:1;stroke:#000000;stroke-width:2;stroke-linecap:butt;stroke-linejoin:miter;stroke-miterlimit:4;stroke-opacity:1;stroke-dasharray:none"
       d="m 453.08556,214.58112 c 0.63114,0.90072 8.4953,5.36416 14.75921,8.49505 0.65915,0.32946 18.27237,-12.05667 25.04201,-14.31423 0.69052,-0.23028 0.45141,-1.45132 1.11788,-1.11819 1.84353,0.92145 2.16351,4.84583 3.57857,6.2605 1.15262,1.15232 6.19937,7.7271 5.81492,8.49627 -0.38071,0.76169 -3.29463,0.16461 -4.69552,1.56588 -3.911,3.91206 -20.25733,11.45162 -21.91147,14.76103 -0.92375,1.84814 -5.04754,5.30279 -5.81311,4.92014"
       id="path6786"
       inkscape:connector-curvature="0"
       inkscape:export-filename="/home/substack/projects/heatwave/static/img/upboat.png"
       inkscape:export-xdpi="90"
       inkscape:export-ydpi="90" />
    <path
       style="fill:none;stroke:#000000;stroke-width:1;stroke-linecap:butt;stroke-linejoin:miter;stroke-opacity:1;stroke-miterlimit:4;stroke-dasharray:none"
       d="m 189,287.36218 c -1.75442,13.64294 0,-11.01038 0,5 0,8.29717 4.83065,14.83065 10,20 6.26146,6.26146 63.86908,20.26184 69,10"
       id="path6940"
       inkscape:connector-curvature="0"
       inkscape:export-filename="/home/substack/projects/heatwave/static/img/upboat.png"
       inkscape:export-xdpi="90"
       inkscape:export-ydpi="90" />
    <path
       style="fill:none;stroke:#000000;stroke-width:1;stroke-linecap:butt;stroke-linejoin:miter;stroke-opacity:1;stroke-miterlimit:4;stroke-dasharray:none"
       d="m 195,275.36218 c -1.28204,3.08039 7.89474,17.89475 14,24 3.82056,3.82056 7.57893,3.57893 11,7 0.63843,0.63843 4.81351,5 6,5 2.22524,0 15.90777,2.45389 17,3 1.56848,0.78424 12.34045,2.65955 14,1 3.95895,-3.95895 15.44105,-3.22052 21,-6 4.96375,-2.48187 7.88788,-5.44394 13,-8"
       id="path6942"
       inkscape:connector-curvature="0"
       inkscape:export-filename="/home/substack/projects/heatwave/static/img/upboat.png"
       inkscape:export-xdpi="90"
       inkscape:export-ydpi="90" />
    <path
       style="fill:#594444;stroke:none;stroke-width:1px;stroke-linecap:butt;stroke-linejoin:miter;stroke-opacity:1;fill-opacity:1"
       d="m 120,390.36218 c -5.8132,5.97503 -7.38737,13.38737 -12,18 -0.55273,0.55273 -1.57911,4.57912 -3,6 -0.57135,0.57135 -2.05714,12.55714 -4,14.5 -0.91658,0.91659 -0.64273,9.14273 -1.5,10 -1.701116,1.70112 -4.20422,14.09156 -2.5,17.5 1.007195,2.01439 1.647837,5.64784 3,7 5.18465,5.18465 8.77978,11.27978 13.5,16 0.57118,0.57118 0.52242,2.52242 1,3 2.2089,2.2089 3.77033,4.77034 6,7 1.29693,1.29694 5.99749,-1.00251 7.5,0.5 1.38399,1.38399 2.5297,5.0297 4,6.5 3.28488,3.28488 10.90103,5.70052 15.5,8 1.66727,0.83364 4.10465,-1 5.5,-1 4.70102,0 7.42433,3.92433 10,6.5 1.11318,1.11318 4.18352,-1.18352 4.5,-1.5 1.4376,-1.4376 5.80863,0.5 7,0.5 5.98348,0 13.45475,-0.97737 18.5,-3.5 2.7091,-1.35455 6.23888,1.88056 9,0.5 2.80725,-1.40362 5.55835,-3.02918 8.5,-4.5 1.44727,-0.72363 6.24978,2.75022 8,1 0.71062,-0.71061 2.33431,-0.41715 3.5,-1 4.24366,-2.12183 10.4651,-4.9651 13,-7.5 1.70208,-1.70208 4.1304,0.7392 5.5,-2 0.6579,-1.3158 9.76065,-6.13032 11.5,-7 1.8678,-0.9339 1.06281,-4.06281 2.5,-5.5 1.50264,-1.50264 2.97425,-1.97425 4.5,-3.5 0.32263,-0.32263 2.5,-3.10731 2.5,-3 0,0.5 -1,0 -1.5,0 -2.52069,0 -5.17951,1 -7.5,1 -0.0493,0 -0.24317,-1.75228 -2.5,-1 -1.64959,0.54987 -3.52892,1.5 -5,1.5 -3.06011,0 -5.39272,-3.10728 -8,-0.5 -1.52405,1.52405 -1,6.39672 -1,7.5 0,0.10416 -9.0124,5.7562 -10.5,6.5 -0.94878,0.47439 -4.91865,-0.45932 -6,-1 -1.43605,-0.71802 -5.02432,0.98784 -7,0 -0.91805,-0.45902 -3.47715,-2.5 -4.5,-2.5 -3.57586,0 -4.62466,10.18767 -10,7.5 -3.77634,-1.88817 -8.23033,-3.61516 -12,-5.5 -1.81628,-0.90814 -2.02615,-3.76307 -3.5,-4.5 -0.42614,-0.21307 -2,-0.77952 -2,-1 0,-0.43816 3.65958,-0.38652 4,-0.5 1.57488,-0.52496 9,-3.57142 9,-4.5 0,-1.15107 -3.18632,-1.09316 -4,-1.5 -2.13701,-1.0685 -0.0349,-2.5 -3.5,-2.5 -1.78456,0 -4.98049,1.4805 -6,2.5 -0.75996,0.75997 -3.28234,-0.5 -3.5,-0.5 -3.13121,0 -4.48457,-1.5 -6.5,-1.5 -0.33333,0 -0.83333,-0.5 -0.5,-0.5 1.80274,0 -7.86197,10.36198 -8,10.5 -2.03189,2.0319 -7.05759,-5.67276 -7.5,-7 -0.27597,-0.82791 -2.37816,-5.62184 -1.5,-6.5 0.82195,-0.82195 6.18624,-0.31375 4,-2.5 -0.68805,-0.68805 -2.39931,-1.79861 -3,-3 -0.20815,-0.41629 0.31716,-1.68284 0,-2 -0.37685,-0.37685 -2.42254,-0.71127 -3,-1 -0.61644,-0.30822 -2.19178,-1.88356 -2.5,-2.5 -0.67303,-1.34605 -0.31326,-3.62653 -1,-5 -0.45688,-0.91377 -2,-2.41046 -2,-3 0,-0.97459 0.435,-5.935 0.5,-6 0.56968,-0.56968 4.5,0.464 4.5,-0.5 0,-1.42047 -2.35981,-2.21962 -3,-3.5 -1.2021,-2.40419 -0.75502,-5.01005 -2,-7.5 -1.42766,-2.85532 -5.5,-5.38692 -5.5,-8.5 0,-2.46079 6.5,-1.9704 6.5,-3 0,-1.86566 -6.5,-5.66343 -6.5,-9 0,-0.54931 0.16076,-4.66076 0.5,-5 2.03824,-2.03824 6.2453,-1.24529 8,-3 1.83435,-1.83435 2.51591,-3.25795 5,-4.5 0.52533,-0.26266 3.74029,-3.75971 2.5,-5 -5.21421,-5.2142 -17.45843,-7.02078 -24.5,-3.5 -2.61405,1.30703 -8.39137,-0.5 -11,-0.5 z"
       id="path7417"
       inkscape:connector-curvature="0"
       inkscape:export-filename="/home/substack/projects/heatwave/static/img/upboat.png"
       inkscape:export-xdpi="90"
       inkscape:export-ydpi="90" />
    <path
       style="fill:none;stroke:#000000;stroke-width:1px;stroke-linecap:butt;stroke-linejoin:miter;stroke-opacity:1"
       d="m 117,394.36218 c 2.32866,2.80363 1.78315,-1.1021 9,-1 2.62991,0 7.48678,-1.75661 11,0 3.4897,1.74485 9.39834,3.39834 12,6 3.81607,3.81607 17.61901,17.76198 14,25"
       id="path6946"
       inkscape:connector-curvature="0"
       sodipodi:nodetypes="ccssc"
       inkscape:export-filename="/home/substack/projects/heatwave/static/img/upboat.png"
       inkscape:export-xdpi="90"
       inkscape:export-ydpi="90" />
    <path
       style="fill:none;stroke:#000000;stroke-width:1px;stroke-linecap:butt;stroke-linejoin:miter;stroke-opacity:1"
       d="m 105.06458,413.30995 c 10.89013,-5.59487 29.61093,-4.22175 42.44699,4.82215 3.48475,2.45525 7.81711,9.83267 8.36838,10.22106 2.15926,1.52135 3.883,6.10724 2.7784,7.675"
       id="path6961"
       inkscape:connector-curvature="0"
       sodipodi:nodetypes="cscc"
       inkscape:export-filename="/home/substack/projects/heatwave/static/img/upboat.png"
       inkscape:export-xdpi="90"
       inkscape:export-ydpi="90" />
    <path
       style="fill:none;stroke:#000000;stroke-width:1px;stroke-linecap:butt;stroke-linejoin:miter;stroke-opacity:1"
       d="m 94.038466,442.22504 c 2.07312,-1.44935 5.246965,-3.50589 6.341194,-4.97888 1.07057,-1.44115 19.26199,-7.27221 20.83187,-6.10601 0.85144,0.6325 3.1787,-0.72169 4.03014,-0.0892 0.58527,0.43477 6.08808,-0.35507 8.13326,0.31626 1.3023,0.42747 4.08697,-0.047 5.1654,0.75413 2.67906,1.99017 5.82836,2.56793 8.79008,4.76807 1.14136,0.84788 1.28543,3.59748 2.14075,4.23287 2.63568,1.95793 5.37957,9.05695 5.56272,10.29835"
       id="path6976"
       inkscape:connector-curvature="0"
       sodipodi:nodetypes="csssssssc"
       inkscape:export-filename="/home/substack/projects/heatwave/static/img/upboat.png"
       inkscape:export-xdpi="90"
       inkscape:export-ydpi="90" />
    <path
       style="fill:none;stroke:#000000;stroke-width:1px;stroke-linecap:butt;stroke-linejoin:miter;stroke-opacity:1"
       d="m 103.52068,472.00707 c 0.87619,-0.13345 -1.27122,-4.86213 3.92291,-8.42347 2.69227,-1.84595 4.74252,-3.25169 7.37683,-5.0579 5.46645,-3.74806 28.12283,-8.89706 34.39634,-6.77436 1.6929,0.57282 3.8258,0.23576 4.09926,0.44279"
       id="path6978"
       inkscape:connector-curvature="0"
       sodipodi:nodetypes="csssc"
       inkscape:export-filename="/home/substack/projects/heatwave/static/img/upboat.png"
       inkscape:export-xdpi="90"
       inkscape:export-ydpi="90" />
    <path
       style="fill:none;stroke:#000000;stroke-width:1px;stroke-linecap:butt;stroke-linejoin:miter;stroke-opacity:1"
       d="m 156,457.86218 c -8.63545,-0.42575 -16.60584,14.10585 -24.5,22 -1.42447,1.42447 -1.602,3.102 -3,4.5 -0.25,0.25 0.25,1.25 0,1.5 -2.68305,2.68305 -2.5,11.17078 -2.5,12.5"
       id="path6980"
       inkscape:connector-curvature="0"
       inkscape:export-filename="/home/substack/projects/heatwave/static/img/upboat.png"
       inkscape:export-xdpi="90"
       inkscape:export-ydpi="90" />
    <path
       style="fill:none;stroke:#000000;stroke-width:1px;stroke-linecap:butt;stroke-linejoin:miter;stroke-opacity:1"
       d="m 153,509.36218 c 1.31243,0.24251 -0.87721,-8.62279 1.5,-11 0.67242,-0.67242 -0.24755,-3.75245 0.5,-4.5 1.16743,-1.16743 0.94433,-4.44432 2.5,-6 1.86524,-1.86523 2.19025,-6.19025 4,-8 0.80031,-0.80031 0.81099,-1.62198 1.5,-3 2.35224,-4.70447 7.59186,-11.54593 9.5,-12.5"
       id="path6982"
       inkscape:connector-curvature="0"
       inkscape:export-filename="/home/substack/projects/heatwave/static/img/upboat.png"
       inkscape:export-xdpi="90"
       inkscape:export-ydpi="90" />
    <path
       style="fill:none;stroke:#000000;stroke-width:1px;stroke-linecap:butt;stroke-linejoin:miter;stroke-opacity:1"
       d="m 187.5,463.86218 c 0.33333,0.66667 1.66667,1.66667 1,2 -0.66667,0.33334 -1.52705,-2.52704 -1,-2 2.55361,2.55361 1.94733,6.44733 4,8.5 0.31793,0.31793 2.60322,20.70643 3.5,22.5 1.34007,2.68015 -1,15.38076 -1,18.5"
       id="path6984"
       inkscape:connector-curvature="0"
       inkscape:export-filename="/home/substack/projects/heatwave/static/img/upboat.png"
       inkscape:export-xdpi="90"
       inkscape:export-ydpi="90" />
    <path
       style="fill:none;stroke:#000000;stroke-width:1px;stroke-linecap:butt;stroke-linejoin:miter;stroke-opacity:1"
       d="m 212,458.86218 c 6.64596,6.22815 21.61867,28.76266 13.5,45"
       id="path6999"
       inkscape:connector-curvature="0"
       inkscape:export-filename="/home/substack/projects/heatwave/static/img/upboat.png"
       inkscape:export-xdpi="90"
       inkscape:export-ydpi="90" />
    <path
       style="fill:none;stroke:#000000;stroke-width:1px;stroke-linecap:butt;stroke-linejoin:miter;stroke-opacity:1"
       d="m 226.5,445.86218 c 5.32617,0.5838 9.32925,4.94309 14,6.5 1.49089,0.49697 2.29116,3.29117 3.5,4.5 7.74334,7.74334 11,24.09992 11,29"
       id="path7014"
       inkscape:connector-curvature="0"
       inkscape:export-filename="/home/substack/projects/heatwave/static/img/upboat.png"
       inkscape:export-xdpi="90"
       inkscape:export-ydpi="90" />
    <path
       style="fill:none;stroke:#000000;stroke-width:1px;stroke-linecap:butt;stroke-linejoin:miter;stroke-opacity:1"
       d="m 242.5,432.36218 c 10.32605,0.0458 19.52639,2.52639 26.5,9.5 0.49888,0.49888 1.63155,0.7631 2,1.5 0.67284,1.34569 1.64765,4.14765 2.5,5 0.83901,0.83901 1.81451,1.12901 2.5,2.5 1.20221,2.40442 3,5.66358 3,9 0,0.58045 0.5,7.89178 0.5,4.5"
       id="path7016"
       inkscape:connector-curvature="0"
       inkscape:export-filename="/home/substack/projects/heatwave/static/img/upboat.png"
       inkscape:export-xdpi="90"
       inkscape:export-ydpi="90" />
    <path
       style="fill:none;stroke:#000000;stroke-width:1px;stroke-linecap:butt;stroke-linejoin:miter;stroke-opacity:1"
       d="m 256.5,417.86218 c 3.27643,1.59425 9.00496,-1.74752 12.5,0 2.7245,1.36225 6.29757,1.14879 9,2.5 8.95698,4.47849 15.32432,8.82432 21,14.5 1.33839,1.33839 2.60064,3.60064 4,5 0.47286,0.47287 2.0462,9.5 1.5,9.5 -0.84984,0 0.11994,-1.73988 0.5,-2.5"
       id="path7018"
       inkscape:connector-curvature="0"
       inkscape:export-filename="/home/substack/projects/heatwave/static/img/upboat.png"
       inkscape:export-xdpi="90"
       inkscape:export-ydpi="90" />
    <path
       style="fill:#594444;fill-opacity:1;stroke:none"
       d="m 356,334.86218 c 1.09702,1.09192 6.02632,2.23684 11.5,-0.5 0.65627,-0.32813 0.98529,1.01471 1.5,0.5 1.57452,-1.57451 6.83511,-1.3351 9,-3.5 2.90979,-2.90978 5.71597,-6.21597 8,-8.5 0.60622,-0.60621 0.48848,-2.48847 1,-3 0.38331,-0.3833 1.68113,-1.36225 2,-2 1.27147,-2.54294 2.40816,-6.40816 4.5,-8.5 1.93054,-1.93054 3.8574,-2.8574 6,-5 2.47286,-2.47286 3.00088,-7.50175 4.5,-10.5 0.98679,-1.97358 3.34048,-3.34047 4.5,-4.5 1.30251,-1.30251 0.49008,-3.99008 2,-5.5 1.39933,-1.39933 5.00014,-4.00013 6.5,-5.5 0.5,-0.5 0,-2 0.5,-2.5 1.90261,-1.90261 2.64498,-5.64498 4.5,-7.5 0.41231,-0.41231 0.18945,-2.87891 0.5,-3.5 1.94177,-3.88354 4.86933,-8.36933 7.5,-11 0.48069,-0.48069 0.35825,-1.85825 1,-2.5 0.59351,-0.59351 2.70786,5.20786 4,6.5 1.07523,1.07523 2.72065,1.77936 2.5,2 -0.89042,0.89042 -3.39848,-0.10151 -4.5,1 -0.32238,0.32239 -8.45909,10.54091 -5.5,13.5 0.4186,0.4186 1.5,2.93865 1.5,3.5 0,0.7525 -3.09352,1.09352 -3.5,1.5 -1.51085,1.51085 -3.18676,3.18677 -5,5 -1.56516,1.56516 2.64329,4.35671 1,6 -1.08848,1.08848 -3.89682,1.39682 -5,2.5 -1.0481,1.0481 2.65744,5.84256 1.5,7 -0.58705,0.58705 -8.46719,0.9672 -11,3.5 -2.70481,2.70482 -3.5,14.93362 -3.5,18.5 0,0.46114 1.79494,2.20506 1,3 -0.33333,0.33334 -0.66667,0.66667 -1,1 -0.6987,0.6987 -6.7684,1.1342 -8.5,2 -1.974,0.987 -5.84865,5.67433 -7.5,6.5 -5.00353,2.50177 -12.55841,5 -18.5,5 -4.17008,0 -12.10681,-5.39319 -13,-4.5 -0.52705,0.52705 0.66667,1.33334 1,2"
       id="path7421"
       inkscape:connector-curvature="0"
       inkscape:export-filename="/home/substack/projects/heatwave/static/img/upboat.png"
       inkscape:export-xdpi="90"
       inkscape:export-ydpi="90" />
    <path
       style="fill:none;stroke:#000000;stroke-width:1px;stroke-linecap:butt;stroke-linejoin:miter;stroke-opacity:1"
       d="m 369.81685,333.23459 c 0.74219,-0.6847 1.21731,5.1064 2.82842,6.71751 2.01008,2.01008 5.34112,11.03578 7.07107,14.49569 1.09738,2.19475 0.28572,4.81407 1.41422,7.07107 1.39022,2.78045 -1.11823,8.42771 0.7071,10.25305 0.10716,0.10715 0.27943,10.45835 0.35356,10.6066"
       id="path7020"
       inkscape:connector-curvature="0"
       inkscape:export-filename="/home/substack/projects/heatwave/static/img/upboat.png"
       inkscape:export-xdpi="90"
       inkscape:export-ydpi="90" />
    <path
       style="fill:none;stroke:#000000;stroke-width:1px;stroke-linecap:butt;stroke-linejoin:miter;stroke-opacity:1"
       d="m 346.12877,331.82037 c 0.64074,3.17847 4.75752,22.30477 1.06066,29.69849 -1.04261,2.08522 -0.009,5.32034 -1.06066,7.42462 -1.06874,2.13747 -4.94975,12.45507 -4.94975,13.78858"
       id="path7022"
       inkscape:connector-curvature="0"
       inkscape:export-filename="/home/substack/projects/heatwave/static/img/upboat.png"
       inkscape:export-xdpi="90"
       inkscape:export-ydpi="90" />
    <path
       style="fill:none;stroke:#000000;stroke-width:1px;stroke-linecap:butt;stroke-linejoin:miter;stroke-opacity:1"
       d="m 383.60543,319.79956 c 6.76084,-1.76873 11.40347,4.97967 16.61701,6.71751 0.86645,0.28882 1.99445,2.41144 2.82843,2.82843 4.59684,2.29842 11.52123,6.42547 13.78858,10.96015 0.65547,1.31096 1.41368,6.36343 2.12132,7.07107 0.98297,0.98297 1.76777,4.0513 1.76777,5.3033"
       id="path7052"
       inkscape:connector-curvature="0"
       inkscape:export-filename="/home/substack/projects/heatwave/static/img/upboat.png"
       inkscape:export-xdpi="90"
       inkscape:export-ydpi="90" />
    <path
       style="fill:none;stroke:#000000;stroke-width:1px;stroke-linecap:butt;stroke-linejoin:miter;stroke-opacity:1"
       d="m 402.69731,296.11148 c 3.20269,1.64005 5.99827,2.35298 9.54594,3.53553 2.6688,0.8896 7.02363,3.4881 8.83884,5.3033 0.40807,0.40807 7.70325,4.73551 8.83883,5.30331 0.55957,0.27978 1.17685,1.17684 1.41422,1.41421 1.19653,1.19653 3.0499,1.63569 4.24264,2.82843 2.70031,2.70031 6.06349,7.88433 8.13173,12.02081"
       id="path7067"
       inkscape:connector-curvature="0"
       inkscape:export-filename="/home/substack/projects/heatwave/static/img/upboat.png"
       inkscape:export-xdpi="90"
       inkscape:export-ydpi="90" />
    <path
       style="fill:none;stroke:#000000;stroke-width:1px;stroke-linecap:butt;stroke-linejoin:miter;stroke-opacity:1"
       d="m 419.66787,272.77696 c 7.68249,6.13766 27.56737,15.19789 39.59798,21.2132"
       id="path7108"
       inkscape:connector-curvature="0"
       inkscape:export-filename="/home/substack/projects/heatwave/static/img/upboat.png"
       inkscape:export-xdpi="90"
       inkscape:export-ydpi="90" />
    <path
       style="fill:none;stroke:#000000;stroke-width:1px;stroke-linecap:butt;stroke-linejoin:miter;stroke-opacity:1"
       d="m 430.27448,256.86705 c 0.4714,0 1.41421,-0.4714 1.41421,0 0,0.47141 -1.74755,-0.33333 -1.41421,0 0.39774,0.39774 2.79813,1.04551 3.53553,1.41422 2.71101,1.3555 5.35024,2.85189 8.13173,4.24264 3.04027,1.52013 6.56747,1.69274 9.54594,3.18198 2.03297,1.01648 4.97591,0.36663 7.07107,1.41421 1.90749,0.95375 11.63712,0 12.72792,0"
       id="path7110"
       inkscape:connector-curvature="0"
       inkscape:export-filename="/home/substack/projects/heatwave/static/img/upboat.png"
       inkscape:export-xdpi="90"
       inkscape:export-ydpi="90" />
    <path
       style="fill:none;stroke:#000000;stroke-width:1px;stroke-linecap:butt;stroke-linejoin:miter;stroke-opacity:1"
       d="m 273,640.36218 c 14.8191,-2.26615 28.32199,-10 42,-10"
       id="path7302"
       inkscape:connector-curvature="0"
       inkscape:export-filename="/home/substack/projects/heatwave/static/img/upboat.png"
       inkscape:export-xdpi="90"
       inkscape:export-ydpi="90" />
    <path
       style="fill:none;stroke:#000000;stroke-width:1px;stroke-linecap:butt;stroke-linejoin:miter;stroke-opacity:1"
       d="m 199,658.36218 c 15.5777,-3.00004 34.60713,-8 48,-8"
       id="path7304"
       inkscape:connector-curvature="0"
       inkscape:export-filename="/home/substack/projects/heatwave/static/img/upboat.png"
       inkscape:export-xdpi="90"
       inkscape:export-ydpi="90" />
    <path
       style="fill:none;stroke:#000000;stroke-width:1px;stroke-linecap:butt;stroke-linejoin:miter;stroke-opacity:1"
       d="m 201,647.36218 c 14.39861,-2.84704 28.71049,-4 37,-4"
       id="path7306"
       inkscape:connector-curvature="0"
       inkscape:export-filename="/home/substack/projects/heatwave/static/img/upboat.png"
       inkscape:export-xdpi="90"
       inkscape:export-ydpi="90" />
    <path
       style="fill:none;stroke:#000000;stroke-width:1px;stroke-linecap:butt;stroke-linejoin:miter;stroke-opacity:1"
       d="m 201,636.36218 c 9.91791,0.10179 19.8917,-3 27,-3"
       id="path7308"
       inkscape:connector-curvature="0"
       inkscape:export-filename="/home/substack/projects/heatwave/static/img/upboat.png"
       inkscape:export-xdpi="90"
       inkscape:export-ydpi="90" />
    <path
       style="fill:none;stroke:#000000;stroke-width:1px;stroke-linecap:butt;stroke-linejoin:miter;stroke-opacity:1"
       d="m 270,631.36218 c 8.83657,0.38049 17.3407,-5 26,-5"
       id="path7310"
       inkscape:connector-curvature="0"
       inkscape:export-filename="/home/substack/projects/heatwave/static/img/upboat.png"
       inkscape:export-xdpi="90"
       inkscape:export-ydpi="90" />
    <path
       style="fill:none;stroke:#000000;stroke-width:1px;stroke-linecap:butt;stroke-linejoin:miter;stroke-opacity:1"
       d="m 267,624.36218 c 6.79063,1.49122 12.83584,-2 19,-2"
       id="path7312"
       inkscape:connector-curvature="0"
       inkscape:export-filename="/home/substack/projects/heatwave/static/img/upboat.png"
       inkscape:export-xdpi="90"
       inkscape:export-ydpi="90" />
    <path
       style="fill:none;stroke:#000000;stroke-width:1px;stroke-linecap:butt;stroke-linejoin:miter;stroke-opacity:1"
       d="m 173,526.36218 c 9.51525,6.28627 56.38149,17.23703 67,-4"
       id="path7327"
       inkscape:connector-curvature="0"
       sodipodi:nodetypes="cc"
       inkscape:export-filename="/home/substack/projects/heatwave/static/img/upboat.png"
       inkscape:export-xdpi="90"
       inkscape:export-ydpi="90" />
    <path
       style="fill:none;stroke:#000000;stroke-width:1px;stroke-linecap:butt;stroke-linejoin:miter;stroke-opacity:1"
       d="m 173,540.36218 c -5.08192,3.48428 34.5703,11.71485 46,6 1.86667,-0.93333 5.13333,0.93334 7,0 6.93141,-3.4657 10.6271,-6.31355 16,-9"
       id="path7329"
       inkscape:connector-curvature="0"
       inkscape:export-filename="/home/substack/projects/heatwave/static/img/upboat.png"
       inkscape:export-xdpi="90"
       inkscape:export-ydpi="90" />
    <path
       style="fill:none;stroke:#000000;stroke-width:1px;stroke-linecap:butt;stroke-linejoin:miter;stroke-opacity:1"
       d="m 179,560.36218 c 11.19278,4.56185 48.179,9.82101 65,-7"
       id="path7331"
       inkscape:connector-curvature="0"
       sodipodi:nodetypes="cc"
       inkscape:export-filename="/home/substack/projects/heatwave/static/img/upboat.png"
       inkscape:export-xdpi="90"
       inkscape:export-ydpi="90" />
    <path
       style="fill:none;stroke:#000000;stroke-width:1px;stroke-linecap:butt;stroke-linejoin:miter;stroke-opacity:1"
       d="m 180,580.36218 c 17.12235,12.12727 53.13367,7.73266 60,-6"
       id="path7333"
       inkscape:connector-curvature="0"
       inkscape:export-filename="/home/substack/projects/heatwave/static/img/upboat.png"
       inkscape:export-xdpi="90"
       inkscape:export-ydpi="90" />
    <path
       style="fill:none;stroke:#000000;stroke-width:1px;stroke-linecap:butt;stroke-linejoin:miter;stroke-opacity:1"
       d="m 182.5,597.86218 c 5.1144,1.20233 8.12607,3.32579 13.5,4.5 2.16653,1.08327 29.6431,2.3569 31,1 2.37171,-2.37171 9.72142,-4.86071 12,-6"
       id="path7335"
       inkscape:connector-curvature="0"
       sodipodi:nodetypes="ccsc"
       inkscape:export-filename="/home/substack/projects/heatwave/static/img/upboat.png"
       inkscape:export-xdpi="90"
       inkscape:export-ydpi="90" />
    <path
       style="fill:none;stroke:#000000;stroke-width:1px;stroke-linecap:butt;stroke-linejoin:miter;stroke-opacity:1"
       d="m 242,517.36218 c 3.70691,3.70691 32.91924,0.0404 37,-2 1.68597,-0.84298 3.80077,0.19923 5,-1 2.29853,-2.29853 10.07271,-8.53635 13,-10"
       id="path7337"
       inkscape:connector-curvature="0"
       sodipodi:nodetypes="cssc"
       inkscape:export-filename="/home/substack/projects/heatwave/static/img/upboat.png"
       inkscape:export-xdpi="90"
       inkscape:export-ydpi="90" />
    <path
       style="fill:none;stroke:#000000;stroke-width:1px;stroke-linecap:butt;stroke-linejoin:miter;stroke-opacity:1"
       d="m 244,534.36218 c 16.62066,3.88823 44.95468,-3.90936 50,-14"
       id="path7339"
       inkscape:connector-curvature="0"
       sodipodi:nodetypes="cc"
       inkscape:export-filename="/home/substack/projects/heatwave/static/img/upboat.png"
       inkscape:export-xdpi="90"
       inkscape:export-ydpi="90" />
    <path
       style="fill:none;stroke:#000000;stroke-width:1px;stroke-linecap:butt;stroke-linejoin:miter;stroke-opacity:1"
       d="m 241,549.36218 c 6.26498,3.33601 47.662,4.676 55,-10"
       id="path7341"
       inkscape:connector-curvature="0"
       inkscape:export-filename="/home/substack/projects/heatwave/static/img/upboat.png"
       inkscape:export-xdpi="90"
       inkscape:export-ydpi="90" />
    <path
       style="fill:none;stroke:#000000;stroke-width:1px;stroke-linecap:butt;stroke-linejoin:miter;stroke-opacity:1"
       d="m 245,567.36218 c 19.03428,4.97857 38.92186,-2.46093 50,-8"
       id="path7356"
       inkscape:connector-curvature="0"
       sodipodi:nodetypes="cc"
       inkscape:export-filename="/home/substack/projects/heatwave/static/img/upboat.png"
       inkscape:export-xdpi="90"
       inkscape:export-ydpi="90" />
    <path
       style="fill:none;stroke:#000000;stroke-width:1px;stroke-linecap:butt;stroke-linejoin:miter;stroke-opacity:1"
       d="m 241,582.36218 c 8.90453,5.8266 36.87887,4.12113 42,-1 2.7042,-2.7042 10.5109,-7.75545 11,-8"
       id="path7358"
       inkscape:connector-curvature="0"
       inkscape:export-filename="/home/substack/projects/heatwave/static/img/upboat.png"
       inkscape:export-xdpi="90"
       inkscape:export-ydpi="90" />
    <path
       style="fill:none;stroke:#000000;stroke-width:1px;stroke-linecap:butt;stroke-linejoin:miter;stroke-opacity:1"
       d="m 240,598.36218 c 12.41794,8.48747 45.71657,6.56687 50,-2"
       id="path7360"
       inkscape:connector-curvature="0"
       inkscape:export-filename="/home/substack/projects/heatwave/static/img/upboat.png"
       inkscape:export-xdpi="90"
       inkscape:export-ydpi="90" />
    <path
       style="fill:#9c7f7f;fill-opacity:1;stroke:none"
       d="m 181.5,611.86218 c -2.27493,3.23284 -1.2095,6.91899 -3,10.5 -0.48523,0.97047 0.5,2.41678 0.5,3.5 0,2.27017 1.3534,6.8534 2.5,8 0.68395,0.68395 2.504,7.00389 3.5,8 3.10326,3.10326 1.45074,8.90148 3.5,13 1.1282,2.25641 5,7.53878 5,10 0,0.45071 3.01435,5.5 3,5.5 -0.0871,0 1.13127,-1.76254 2,-3.5 1.44171,-2.88342 6.81126,-0.65563 9.5,-2 0.58256,-0.29128 3.17444,-0.17444 3.5,-0.5 0.37268,-0.37268 1.5,-1.02704 1.5,-0.5 0,0.37268 -0.73648,-0.23647 -1,-0.5 -0.73749,-0.73749 -2.88712,-0.38712 -3.5,-1 -0.48052,-0.48052 -7.23883,0.26117 -10,-2.5 -0.05,-0.05 -1.11667,-0.38333 -0.5,-1 1.5457,-1.5457 6.43561,-4.5 9,-4.5 0.78957,0 5.90023,-2.09976 5.5,-2.5 -1.69558,-1.69558 -11.02843,-0.0284 -14,-3 -0.33333,-0.33333 -0.16667,-1.16666 -0.5,-1.5 -3.46577,-3.46577 12.09516,-6.5 13,-6.5 0.52705,0 1.5,-1.02704 1.5,-0.5 0,0.73954 -2.71459,-0.5 -3.5,-0.5 -2.68034,0 -12.93083,-1.63834 -11.5,-4.5 1.74979,-3.49958 20.14798,-2.64798 24,-6.5 2.11381,-2.11381 -13.37956,-1 -14,-1 -4.77834,0 -19.13171,-7.6317 -21.5,-10 -0.2357,-0.2357 0.2357,-0.7643 0,-1 -0.83333,-0.83333 -1.16667,-2.16666 -2,-3 -0.75462,-0.75461 -3.16667,-1.16666 -2.5,-2 0.66667,-0.83333 1.66667,1.33334 2.5,2"
       id="path7362"
       inkscape:connector-curvature="0"
       sodipodi:nodetypes="cssscssssssscsssssscssssssssssc"
       inkscape:export-filename="/home/substack/projects/heatwave/static/img/upboat.png"
       inkscape:export-xdpi="90"
       inkscape:export-ydpi="90" />
    <path
       style="fill:#917171;stroke:none;stroke-width:1px;stroke-linecap:butt;stroke-linejoin:miter;stroke-opacity:1;fill-opacity:1"
       d="m 179.5,614.86218 c -3.34416,7.34303 3.08262,26.08262 6,29 0.82567,0.82568 4.12032,16.62032 6,18.5 1.37317,1.37318 2.75786,5.24214 5.5,2.5 0.53076,-0.53075 1.46924,1.03076 2,0.5 0.67704,-0.67704 -2.02294,-0.52294 -3,-1.5 -1.25869,-1.25869 -2.54377,-5.95623 -1.5,-7 0.68718,-0.68718 2.5,-0.52817 2.5,-1.5 0,-0.37268 0.5,-1.37268 0.5,-1 0,0.37268 -0.73648,-0.23647 -1,-0.5 -1.98614,-1.98614 -3.97833,-4.97833 -5.5,-6.5 -2.13131,-2.13131 4,-10.24252 4,-8 0,1.48261 -9.00694,-3.48611 -7,-7.5 0.26315,-0.52629 4,-5.17947 4,-3.5 0,0.52705 -0.97295,-0.5 -1.5,-0.5 -0.9318,0 -1.50495,-1.00495 -2,-1.5 -0.8579,-0.8579 -2.79468,-2.29468 -3.5,-3 -2.25648,-2.25648 0.0889,-7.38223 -5.5,-8.5 z"
       id="path7379"
       inkscape:connector-curvature="0"
       inkscape:export-filename="/home/substack/projects/heatwave/static/img/upboat.png"
       inkscape:export-xdpi="90"
       inkscape:export-ydpi="90" />
    <path
       style="fill:#9c7f7f;stroke:none;stroke-width:1px;stroke-linecap:butt;stroke-linejoin:miter;stroke-opacity:1;fill-opacity:1"
       d="m 154.5,161.36218 c -3.15381,6.48046 -0.16516,27.33032 -1,29 -1.39644,2.79288 -2.17808,13.14385 -0.5,16.5 1.2569,2.51381 -0.79598,7.70402 1,9.5 0.24949,0.24949 0,2.1085 0,2.5 0,7.88528 -1.1312,19.73759 1.5,25 0.41637,0.83273 15.16057,10.16057 17.5,12.5 0.35945,0.35946 2.89814,0.69907 3.5,1 4.19638,2.09819 7.74629,5.24629 10.5,8 0.93042,0.93043 3.58425,1.29213 5,2 3.43436,1.71718 8.20192,3.70192 10.5,6 1.47847,1.47848 9.68518,3.59259 12.5,5 1.96129,0.98065 5.80987,0.80987 7.5,2.5 2.44855,2.44856 8.04233,6.52117 12,8.5 0.84778,0.42389 2.87895,0.87896 3.5,1.5 0.92282,0.92282 3.04839,1.54839 4,2.5 0.18701,0.18701 1.70352,2.79648 2.5,2 0.82317,-0.82316 -4.26078,-4.26078 -5,-5 -5.93802,-5.93802 -19.48343,-12.96687 -23,-20 -0.40398,-0.80796 -7.09756,-15.5 -3.5,-15.5 0.48249,0 -3.49156,-0.5 -7,-0.5 -3.02417,0 -8.87092,-1.37092 -11,-3.5 -3.41472,-3.41472 1.60681,-11.60681 4.5,-14.5 0.43491,-0.43491 1.78386,-0.93227 1.5,-1.5 -1.0997,-2.19939 -4.9668,-3.20019 -6.5,-5.5 -1.99825,-2.99738 -5.78241,-11.21759 -2.5,-14.5 0.91147,-0.91146 7.8399,-7.6601 6,-9.5 -2.47246,-2.47246 -7.90483,-2.90483 -11.5,-6.5 -2.55687,-2.55687 -4.23155,-5.82103 -7.5,-8 -3.47188,-2.31459 -9.85917,-2.71835 -12,-7 -1.74329,-3.48658 0.0366,-11.46345 -2,-13.5 -0.76941,-0.76941 -3.09913,-2.59913 -4,-3.5 -0.41667,-0.41666 -0.0833,-1.58333 -0.5,-2 -1.30785,-1.30785 -3.41718,-2.46687 -6,-3.5 z"
       id="path7400"
       inkscape:connector-curvature="0"
       inkscape:export-filename="/home/substack/projects/heatwave/static/img/upboat.png"
       inkscape:export-xdpi="90"
       inkscape:export-ydpi="90" />
    <path
       style="fill:#9c7f7f;fill-opacity:1;stroke:none"
       d="m 465.5,171.36218 c -4.81245,2.77194 -6.41313,7.41313 -9.5,10.5 -0.7918,0.79181 -1.03353,3.53353 -2,4.5 -0.60622,0.60622 0.0115,2.98848 -0.5,3.5 -7.02096,7.02096 -13.05615,16.55615 -19.5,23 -0.29513,0.29513 0.14366,12.28731 0.5,13 1.30979,2.61958 -0.31617,6.68384 1.5,8.5 1.06069,1.06069 0.16728,9.33455 1,11 0.6363,1.2726 3.3813,1.44065 4.5,2 2.41148,1.20574 11.65467,4.15467 12.5,5 1.01063,1.01063 5.0821,0.29105 6.5,1 2.0244,1.0122 4.83595,-1 5.5,-1 0.66667,0 1.5286,0.47141 2,0 1.60717,-1.60717 -1,-0.47349 -1,-3 0,-0.7962 0.50672,-4.49328 0,-5 -0.39821,-0.39821 -7.62052,-2.37947 -5,-5 1.23095,-1.23095 3.48944,-3.49472 5.5,-4.5 1.06506,-0.53253 3.17831,-0.67831 4,-1.5 0.72576,-0.72576 -7.6124,-4.0562 -8.5,-4.5 -2.99092,-1.49546 -15.63632,-13.72735 -14,-17 2.36467,-4.72933 5.38094,-5.76188 7.5,-10 1.08273,-2.16546 -2.39433,-4.71133 -1,-7.5 1.37862,-2.75724 6.62745,-4.12744 8.5,-6 3.43057,-3.43057 -0.78585,-8.42829 1,-12 0.5,-1 1.77116,-1.91535 1.5,-3 -0.18078,-0.7231 -0.66667,-1.33333 -1,-2 z"
       id="path7415"
       inkscape:connector-curvature="0"
       inkscape:export-filename="/home/substack/projects/heatwave/static/img/upboat.png"
       inkscape:export-xdpi="90"
       inkscape:export-ydpi="90" />
    <path
       style="fill:#6b5151;stroke:none;stroke-width:1px;stroke-linecap:butt;stroke-linejoin:miter;stroke-opacity:1;fill-opacity:1"
       d="m 280.72139,214.44065 c 8.04076,-8.0056 20.39996,-3.04072 24.39519,4.94974 1.42032,2.84066 1.41421,5.01957 1.41421,7.77818 0,2.5171 -1.41421,5.72019 -1.41421,5.3033 0,-0.0363 0.11542,1.65234 -0.35356,2.12132 -0.74703,0.74703 -1.35925,2.41992 -1.76776,2.82843 -0.24789,0.24788 0.35355,-3.9381 0.35355,-5.3033 0,-0.63465 -0.42328,-1.20012 -0.70711,-1.76777 -0.15736,-0.31473 0.35356,-1.7523 0.35356,-2.47487 0,-0.66119 -3.38273,-6.21116 -3.88909,-6.71752 -2.90426,-2.90425 -8.97818,-5.65685 -13.43503,-5.65685 -2.49193,0 -4.94975,-1.74352 -4.94975,-1.06066 0,0.75461 1.17851,0.94281 1.76777,1.41421"
       id="path7423"
       inkscape:connector-curvature="0"
       inkscape:export-filename="/home/substack/projects/heatwave/static/img/upboat.png"
       inkscape:export-xdpi="90"
       inkscape:export-ydpi="90" />
    <path
       style="fill:#6b5151;stroke:none;stroke-width:1px;stroke-linecap:butt;stroke-linejoin:miter;stroke-opacity:1;fill-opacity:1"
       d="m 332.34019,199.5914 c 5.06107,-2.60168 16.40958,-8.33915 18.73833,-6.0104 0.15156,0.15156 2.62754,-0.20089 3.18198,0.35355 0.52248,0.52248 1.57965,1.32016 2.47487,1.76777 1.20323,0.60161 2.65247,0.53115 3.53554,1.41421 1.81738,1.81738 2.96923,4.737 4.94974,6.71751 0.18032,0.18032 0.69011,2.49188 0.35356,2.82843 -0.46438,0.46438 -1.73185,1.37829 -2.12132,1.76777 -1.2076,1.20759 0.42762,6.28989 -2.12132,8.83883 -0.76604,0.76604 -1.70885,1.35529 -2.47488,2.12132 -0.53359,0.5336 -1.76777,2.16883 -1.76777,1.41422 0,-1.06587 4.83769,-6.12247 2.82843,-8.13173 -0.80051,-0.80051 -0.12329,-2.72145 -0.7071,-3.88909 -0.96774,-1.93546 -2.47508,-4.5964 -3.88909,-6.01041 -0.54628,-0.54628 -1.70337,-0.28915 -2.12132,-0.7071 -0.98482,-0.98482 -3.94044,-0.75846 -4.5962,-1.41422 -2.4086,-2.4086 -11.49324,0 -14.14213,0 -0.79057,0 -1.3873,-0.76705 -2.12132,-1.06066 z"
       id="path7438"
       inkscape:connector-curvature="0"
       inkscape:export-filename="/home/substack/projects/heatwave/static/img/upboat.png"
       inkscape:export-xdpi="90"
       inkscape:export-ydpi="90" />
    <path
       style="fill:#453434;stroke:none;stroke-width:1px;stroke-linecap:butt;stroke-linejoin:miter;stroke-opacity:1;fill-opacity:1"
       d="m 274.35743,217.97618 c -0.84198,0.53887 -8.70023,6.50256 -3.53553,11.66726 0.38168,0.38168 2.51774,7.11393 3.53553,8.13173 2.63163,2.63163 6.87529,5.81463 8.83884,7.77817 1.27782,1.27782 7.86491,-0.75047 8.48528,-1.06066 1.18338,-0.59169 1.86499,-0.93249 2.82842,-1.41421 0.29815,-0.14907 0.70711,-1.04044 0.70711,-0.70711 0,0.83334 -0.35355,-1.64154 -0.35355,-2.47487 0,-2.26485 -6.78226,-12.43911 -7.77818,-13.43503 -1.3744,-1.3744 -3.87851,-3.52495 -4.94974,-4.59619 -1.45778,-1.45778 -4.80111,-2.47488 -6.01041,-2.47488 -0.11785,0 0,-0.2357 0,-0.35355 -0.58926,-0.35355 -1.28186,-1.54657 -1.76777,-1.06066 -0.48591,0.48591 1.64992,1.41421 1.06066,1.76777 -0.58925,0.35355 -0.70711,-1.17851 -1.06066,-1.76777 z"
       id="path7466"
       inkscape:connector-curvature="0"
       inkscape:export-filename="/home/substack/projects/heatwave/static/img/upboat.png"
       inkscape:export-xdpi="90"
       inkscape:export-ydpi="90" />
    <path
       style="fill:#453434;stroke:none;stroke-width:1px;stroke-linecap:butt;stroke-linejoin:miter;stroke-opacity:1;fill-opacity:1"
       d="m 328.09755,204.8947 c -1.63686,4.17269 -2.60764,16.48425 0.7071,19.79899 1.32877,1.32877 10.70836,2.22308 11.31371,2.82843 1.3858,1.3858 6.93308,1.5522 8.13173,0.35356 3.91279,-3.91279 0.99717,-9.96299 -2.12132,-13.08148 -0.55265,-0.55265 -1.75038,-0.68972 -2.12132,-1.06066 -0.98308,-0.98308 -1.654,-2.06444 -3.18198,-2.82843 -0.99882,-0.49941 -2.68116,-0.91339 -3.53554,-1.76776 -1.77586,-1.77587 -6.66937,-4.24265 -9.19238,-4.24265 z"
       id="path7481"
       inkscape:connector-curvature="0"
       inkscape:export-filename="/home/substack/projects/heatwave/static/img/upboat.png"
       inkscape:export-xdpi="90"
       inkscape:export-ydpi="90" />
  </g>
</svg>
